<!-- <?xml version="1.0" standalone="no"?>
<!DOCTYPE svg PUBLIC "-//W3C//DTD SVG 20010904//EN"
 "http://www.w3.org/TR/2001/REC-SVG-20010904/DTD/svg10.dtd">
<svg version="1.0" xmlns="http://www.w3.org/2000/svg"
 width="3332.000000pt" height="1771.000000pt" viewBox="0 0 3332.000000 1771.000000"
 preserveAspectRatio="xMidYMid meet"> -->

<g transform="translate(0.000000,1771.000000) scale(0.100000,-0.100000)"
fill="#000000" stroke="none">
<path d="M18504 16610 c-70 -40 -95 -101 -78 -188 l6 -30 38 13 c55 19 79 36
99 70 36 58 37 165 2 165 -9 0 -39 -13 -67 -30z"/>
<path d="M18233 16457 c-41 -28 -73 -77 -80 -120 -5 -35 20 -131 37 -142 12
-8 88 62 106 96 18 36 18 100 0 143 -19 45 -28 49 -63 23z"/>
<path d="M18002 16275 c-33 -52 -39 -91 -16 -118 16 -18 16 -19 2 -8 -24 18
-23 1 1 -47 24 -48 56 -76 76 -68 21 8 55 83 55 124 0 18 -7 47 -16 65 -16 32
-63 87 -73 87 -3 0 -16 -16 -29 -35z"/>
<path d="M17671 16158 c-26 -45 -31 -121 -10 -161 18 -35 59 -87 69 -87 5 0
21 20 35 45 31 51 35 117 11 161 -16 32 -63 84 -74 84 -4 0 -18 -19 -31 -42z"/>
<path d="M18560 16175 c25 -27 40 -25 40 6 0 15 -7 19 -32 19 l-31 0 23 -25z"/>
<path d="M18448 16174 c-33 -17 -36 -24 -8 -17 27 7 25 -9 -6 -46 -27 -33 -25
-46 16 -77 26 -21 69 8 48 33 -5 7 -7 20 -4 29 5 13 9 14 21 4 8 -7 15 -19 15
-26 0 -22 18 -16 36 12 17 25 16 26 -22 65 -42 43 -55 46 -96 23z"/>
<path d="M18231 16126 c-67 -50 -87 -103 -68 -181 11 -47 14 -50 41 -48 38 3
83 46 90 86 3 18 8 46 12 64 7 37 -12 103 -30 103 -7 0 -27 -11 -45 -24z"/>
<path d="M17477 16126 c-65 -24 -97 -67 -112 -148 -7 -37 -6 -38 21 -38 104 0
186 68 195 160 4 34 3 35 -31 37 -19 2 -52 -4 -73 -11z"/>
<path d="M17888 16060 c-46 -38 -73 -105 -64 -156 9 -43 36 -104 48 -104 5 0
28 20 53 44 60 60 71 134 33 212 -18 38 -28 39 -70 4z"/>
<path d="M16676 16038 c-40 -33 -66 -80 -66 -121 0 -32 29 -127 39 -127 4 0
28 18 53 40 54 47 71 97 57 161 -11 46 -26 79 -37 79 -4 0 -25 -14 -46 -32z"/>
<path d="M18370 16035 c0 -10 10 -15 27 -15 26 0 26 1 7 15 -25 19 -34 19 -34
0z"/>
<path d="M17629 15883 c-8 -14 -14 -54 -14 -88 0 -51 4 -67 26 -96 15 -19 41
-42 58 -52 l31 -18 16 37 c11 26 15 58 12 98 -4 55 -8 62 -51 102 -25 24 -50
44 -55 44 -5 0 -15 -12 -23 -27z"/>
<path d="M19025 15733 c-49 -25 -95 -75 -105 -114 -11 -40 4 -139 21 -139 21
0 88 41 108 66 29 37 41 91 32 142 -11 57 -20 64 -56 45z"/>
<path d="M19325 15734 c-45 -15 -65 -33 -89 -79 -26 -47 -14 -58 67 -63 49 -2
69 1 94 17 40 25 97 101 85 113 -18 18 -120 25 -157 12z"/>
<path d="M16644 15680 c-47 -71 -43 -160 12 -225 l24 -30 21 25 c39 48 61 108
54 150 -7 40 -57 120 -75 120 -5 0 -22 -18 -36 -40z"/>
<path d="M18133 15629 c-13 -5 -23 -13 -23 -19 0 -6 -4 -8 -10 -5 -5 3 -17 2
-26 -3 -12 -7 -13 -11 -5 -17 16 -10 -15 -45 -40 -45 -23 0 -42 -67 -33 -116
6 -32 9 -35 33 -29 92 22 141 83 141 177 0 63 -4 70 -37 57z"/>
<path d="M18785 15503 c-68 -68 -72 -146 -11 -236 l19 -28 29 28 c59 56 72
127 37 199 -30 64 -41 69 -74 37z"/>
<path d="M16950 15458 c-48 -33 -72 -70 -77 -119 -6 -52 12 -129 31 -129 22 0
98 72 113 108 20 47 2 162 -26 162 -4 0 -23 -10 -41 -22z"/>
<path d="M19043 15451 c-29 -14 -49 -33 -68 -66 -34 -58 -27 -67 57 -73 77 -6
116 13 158 76 17 25 30 49 30 53 0 11 -67 29 -105 29 -16 0 -49 -9 -72 -19z"/>
<path d="M16020 15396 c0 -55 4 -69 26 -96 29 -34 84 -66 124 -71 21 -3 26 0
28 25 5 45 -16 114 -44 146 -22 24 -97 60 -126 60 -4 0 -8 -29 -8 -64z"/>
<path d="M18480 15418 c-36 -50 -44 -76 -37 -127 5 -42 45 -111 64 -111 33 0
83 85 83 140 0 51 -45 140 -71 140 -5 0 -23 -19 -39 -42z"/>
<path d="M19313 15420 c-30 -18 -93 -93 -93 -111 0 -13 62 -29 114 -29 61 0
98 21 138 81 15 23 28 45 28 49 0 11 -74 30 -116 30 -22 0 -53 -9 -71 -20z"/>
<path d="M18105 15329 c-49 -29 -105 -97 -105 -128 0 -18 105 -33 148 -21 61
16 141 115 115 141 -16 16 -134 22 -158 8z"/>
<path d="M18640 15261 c-43 -45 -64 -104 -54 -148 8 -33 42 -103 50 -103 3 0
19 9 35 21 39 27 69 88 69 139 0 40 -29 112 -50 125 -6 4 -29 -11 -50 -34z"/>
<path d="M17693 15243 c-41 -22 -81 -76 -89 -119 -7 -38 21 -144 38 -144 19 0
79 51 99 84 23 37 25 112 5 161 -8 19 -16 35 -18 35 -2 0 -18 -8 -35 -17z"/>
<path d="M18895 15233 c-36 -9 -75 -44 -96 -85 -11 -22 -19 -41 -17 -42 12
-11 77 -26 107 -26 33 0 88 25 115 53 21 22 46 61 46 73 0 25 -95 42 -155 27z"/>
<path d="M19205 15206 c-35 -16 -67 -49 -89 -91 -15 -28 -14 -30 7 -42 31 -17
122 -16 158 2 30 16 89 88 89 110 0 13 -72 35 -112 35 -13 -1 -36 -7 -53 -14z"/>
<path d="M16160 15184 c-94 -20 -219 -85 -290 -150 -101 -94 -157 -243 -136
-358 11 -57 21 -42 22 32 2 108 33 173 123 263 62 61 91 82 156 109 77 33 85
35 205 35 123 0 126 0 201 -36 93 -45 146 -91 185 -161 28 -51 29 -57 29 -183
-1 -109 -5 -148 -29 -240 -54 -213 -180 -568 -386 -1095 -62 -157 -116 -296
-121 -309 -5 -13 -12 -22 -14 -19 -3 2 -16 44 -30 94 -52 179 -188 422 -322
575 -192 220 -459 385 -668 414 -47 7 -43 3 80 -59 151 -76 232 -134 369 -266
229 -221 349 -442 402 -740 23 -129 22 -466 -1 -760 -10 -126 -19 -331 -19
-468 l-1 -243 -211 213 c-305 309 -406 436 -498 629 -67 140 -96 243 -103 363
-12 206 62 381 215 506 30 24 50 46 44 48 -23 7 -160 -84 -227 -152 -79 -80
-135 -177 -161 -277 -21 -80 -23 -254 -4 -326 8 -29 11 -55 8 -58 -3 -3 -26 7
-51 22 -384 235 -527 304 -787 379 -187 53 -322 83 -444 100 -127 16 -356 19
-356 4 0 -6 28 -10 64 -10 253 0 774 -165 1106 -351 208 -116 336 -214 526
-404 164 -163 322 -341 312 -350 -2 -3 -62 0 -132 5 -228 17 -410 -14 -582
-100 -271 -136 -418 -387 -399 -680 10 -156 45 -257 135 -390 62 -91 237 -246
256 -227 2 2 -14 17 -37 33 -23 15 -72 62 -110 103 -73 79 -112 156 -151 296
-24 88 -25 246 -2 326 69 234 275 408 551 465 58 12 110 15 208 11 159 -6 238
-27 384 -102 247 -127 404 -320 626 -770 97 -198 187 -396 181 -402 -1 -1 -31
13 -67 32 -269 143 -792 207 -1099 135 -27 -7 -51 -20 -59 -32 -13 -20 -12
-20 54 -13 125 13 384 8 490 -10 109 -19 280 -72 360 -112 131 -67 272 -184
363 -302 160 -207 254 -451 303 -786 20 -135 18 -547 -4 -711 -48 -362 -154
-724 -267 -911 -89 -146 -148 -206 -425 -433 -166 -136 -227 -169 -395 -220
-199 -59 -363 -76 -855 -90 -570 -16 -682 -30 -1055 -130 -290 -77 -387 -90
-702 -94 -326 -4 -335 -6 -540 -169 -49 -37 -88 -75 -88 -83 0 -8 2 -14 4 -14
2 0 69 36 148 80 186 102 231 114 403 107 72 -4 164 -13 205 -20 143 -27 190
-38 190 -46 0 -3 -19 -36 -42 -71 -36 -55 -55 -72 -123 -112 -111 -65 -159
-101 -163 -122 -3 -13 0 -17 9 -13 8 3 70 29 138 57 151 63 187 85 271 166
146 141 385 224 730 255 94 8 259 10 546 6 237 -4 483 -2 580 3 138 9 428 38
532 54 50 8 15 -17 -110 -78 -509 -245 -581 -268 -904 -286 -213 -11 -335 -35
-482 -91 -212 -83 -242 -91 -357 -99 -60 -4 -119 -11 -130 -15 -11 -5 -81 -49
-155 -99 -221 -148 -257 -163 -477 -201 -159 -28 -209 -43 -303 -90 -92 -47
-150 -91 -150 -115 0 -26 6 -25 44 4 98 74 177 95 406 106 238 11 286 25 525
159 135 75 168 86 331 111 92 14 170 33 273 69 80 28 147 49 149 46 3 -2 -19
-30 -48 -62 -30 -32 -95 -122 -146 -199 -51 -78 -104 -151 -118 -162 -14 -11
-54 -25 -88 -31 -35 -6 -77 -22 -99 -37 -60 -41 -288 -298 -276 -310 10 -10
69 31 153 107 124 112 155 129 236 129 74 0 118 14 159 52 14 12 77 88 140
168 174 220 227 260 411 320 121 39 245 65 458 95 96 13 196 30 222 38 26 8
49 12 52 10 17 -17 -102 -225 -182 -317 -59 -69 -153 -144 -251 -203 -42 -24
-83 -48 -91 -53 -8 -5 -48 -24 -87 -42 -52 -23 -73 -38 -73 -51 0 -15 6 -17
38 -11 121 21 427 150 523 220 72 53 126 122 215 271 38 64 92 138 119 165 82
82 451 316 579 370 78 32 185 62 193 54 8 -8 -69 -139 -142 -241 -35 -49 -148
-194 -250 -322 l-186 -231 -34 -124 c-44 -155 -45 -155 -320 -308 -114 -63
-229 -133 -255 -157 -52 -47 -124 -145 -119 -162 2 -6 35 20 72 58 60 61 82
75 185 121 184 82 373 172 415 198 47 28 104 115 143 217 35 94 96 164 239
279 108 86 272 196 292 196 9 0 11 -13 8 -42 -2 -24 -7 -79 -10 -122 -8 -117
-34 -166 -155 -288 -95 -97 -150 -177 -150 -220 0 -28 34 -6 50 32 14 33 49
61 210 167 138 91 197 158 214 238 3 17 12 89 21 162 20 179 28 211 87 338 41
89 61 120 105 161 53 49 54 50 60 26 20 -82 -23 -437 -71 -585 -15 -43 -26
-92 -26 -108 0 -17 18 -72 41 -122 55 -122 72 -209 64 -317 -7 -102 -39 -305
-59 -378 -9 -34 -11 -52 -4 -50 29 10 124 332 149 502 13 86 7 231 -13 326
-11 54 -10 63 16 140 35 102 91 231 100 231 13 0 160 -215 193 -281 17 -36 34
-83 36 -105 2 -22 9 -50 15 -61 18 -34 82 -85 137 -110 89 -41 112 -77 124
-196 5 -50 16 -99 29 -123 30 -57 118 -176 125 -169 3 3 -15 45 -41 93 l-47
86 3 97 c3 140 -15 184 -129 303 -52 55 -91 105 -94 122 -22 102 -90 267 -146
358 -21 33 -41 73 -45 89 l-7 29 59 -33 c276 -157 442 -282 544 -410 79 -99
83 -108 144 -265 75 -195 63 -181 211 -255 72 -36 198 -94 280 -130 144 -61
153 -67 222 -138 39 -40 74 -69 77 -64 3 6 -19 44 -49 85 -68 94 -116 126
-450 307 -121 65 -148 93 -169 167 -9 32 -28 94 -41 138 -13 44 -29 98 -34
120 -6 23 -40 77 -78 127 -38 47 -108 138 -156 202 -48 63 -142 177 -207 253
-66 76 -119 142 -120 146 -1 25 200 -48 316 -114 159 -91 430 -276 471 -323
22 -25 72 -100 112 -166 39 -66 101 -153 137 -194 64 -72 71 -77 209 -140 221
-101 395 -160 415 -140 15 15 -2 29 -90 73 -250 126 -333 191 -452 348 -53 71
-153 251 -144 260 2 2 27 -2 55 -11 28 -8 117 -24 198 -36 280 -40 394 -65
542 -119 140 -51 212 -113 361 -311 138 -183 176 -210 293 -210 85 0 99 -8
243 -136 78 -69 140 -111 151 -101 8 9 -229 272 -275 305 -32 22 -68 36 -112
44 -81 14 -100 33 -220 218 -48 74 -109 159 -135 189 -56 61 -62 61 100 4 142
-50 184 -61 311 -77 120 -16 197 -42 292 -99 87 -53 211 -113 282 -137 52 -17
103 -24 250 -31 231 -10 298 -26 397 -94 43 -29 53 -31 53 -11 0 22 -67 72
-155 116 -79 39 -155 59 -368 99 -134 24 -206 57 -388 178 -75 50 -146 96
-159 103 -13 7 -76 16 -139 21 -120 8 -148 16 -350 94 -175 68 -212 74 -606
104 -147 12 -242 34 -383 90 -112 45 -557 259 -551 266 3 2 72 -5 154 -15 319
-39 388 -42 990 -44 512 -2 615 -5 700 -19 243 -42 455 -125 556 -219 125
-115 150 -131 309 -193 52 -21 99 -41 105 -46 12 -12 35 -11 35 1 0 16 -42 50
-115 92 -121 70 -143 88 -185 155 -22 36 -39 67 -37 69 6 6 199 42 292 55 50
6 138 9 198 6 103 -4 112 -7 200 -50 51 -25 130 -66 175 -92 153 -85 73 8
-116 135 -115 78 -138 83 -432 86 -315 4 -404 16 -689 93 -363 99 -487 114
-1057 131 -364 11 -662 32 -800 56 -228 39 -461 192 -617 405 -276 376 -473
1080 -493 1759 -27 880 201 1552 646 1908 159 128 309 204 495 252 217 56 390
50 573 -20 142 -55 306 -186 410 -328 26 -35 48 -58 50 -53 5 15 -82 147 -145
218 -106 122 -314 253 -451 284 -29 7 -52 15 -52 19 0 4 17 14 38 23 328 138
588 312 703 470 34 46 62 107 54 115 -3 3 -6 3 -8 1 -2 -2 -15 -22 -29 -45
-58 -91 -174 -169 -435 -295 -226 -109 -319 -141 -633 -219 -367 -92 -521
-150 -686 -260 -103 -69 -264 -232 -339 -343 -33 -49 -61 -84 -62 -80 -7 20
91 280 155 415 337 705 880 1170 1429 1224 45 4 70 10 66 17 -10 17 -266 1
-363 -23 -81 -20 -182 -51 -225 -69 -218 -94 -344 -175 -499 -320 l-48 -46 37
75 c38 77 60 112 174 285 189 286 412 537 657 743 252 211 578 383 829 437
114 25 119 29 35 33 -356 16 -916 -309 -1336 -776 -54 -61 -101 -109 -103
-107 -2 2 6 39 17 82 71 268 50 571 -52 731 -27 43 -48 53 -27 13 7 -11 20
-56 31 -98 37 -145 21 -367 -40 -562 -11 -36 -26 -82 -32 -101 -6 -19 -23 -62
-38 -95 -15 -33 -53 -118 -85 -190 -33 -71 -73 -157 -90 -190 -42 -80 -205
-379 -265 -485 -84 -150 -143 -262 -196 -373 -28 -59 -55 -112 -60 -117 -5 -5
-10 71 -11 188 -3 237 -26 475 -93 940 -73 513 -81 573 -101 826 -14 179 -7
489 14 601 33 175 85 284 183 383 121 121 292 174 398 122 105 -51 163 -163
153 -296 -7 -91 7 -88 22 4 20 119 -14 227 -95 302 -72 66 -121 83 -223 78
-189 -9 -340 -127 -457 -359 -153 -305 -178 -650 -100 -1399 72 -702 86 -911
86 -1263 1 -489 -44 -884 -150 -1322 -37 -153 -106 -395 -116 -405 -10 -9 -25
28 -83 205 -322 978 -313 1906 22 2453 61 100 50 108 -26 19 -130 -153 -231
-363 -291 -610 -61 -247 -103 -709 -90 -987 3 -83 2 -120 -4 -110 -22 33 -153
383 -195 520 -59 191 -77 300 -84 505 -15 446 103 1076 343 1835 190 599 227
731 249 877 39 257 2 420 -120 531 -119 109 -294 147 -485 106z"/>
<path d="M20245 15188 c-44 -15 -82 -55 -101 -104 -21 -56 -14 -74 29 -74 61
0 95 12 135 46 46 39 76 119 51 135 -18 12 -76 10 -114 -3z"/>
<path d="M16889 15137 c-57 -31 -81 -73 -83 -145 l-1 -57 30 3 c76 8 136 66
150 144 15 79 -16 97 -96 55z"/>
<path d="M18442 15105 c-37 -81 -22 -156 41 -210 46 -40 62 -43 76 -16 39 72
16 171 -52 221 -22 16 -44 30 -47 30 -4 0 -12 -11 -18 -25z"/>
<path d="M19885 15088 c-16 -6 -39 -18 -49 -27 -20 -17 -66 -107 -66 -128 0
-18 101 -17 145 1 39 17 81 75 90 129 l7 37 -48 -1 c-27 0 -62 -5 -79 -11z"/>
<path d="M13238 15006 c-15 -19 -33 -55 -40 -79 -10 -38 -9 -52 5 -89 10 -25
29 -56 43 -69 l26 -24 28 33 c33 40 55 111 45 149 -8 35 -57 113 -70 113 -5 0
-22 -15 -37 -34z"/>
<path d="M19585 15024 c-43 -22 -64 -44 -86 -86 -32 -62 -28 -68 46 -68 40 0
78 6 96 15 31 16 74 76 84 118 6 22 3 25 -32 30 -57 10 -75 8 -108 -9z"/>
<path d="M17335 14959 c-29 -88 -10 -150 62 -206 l32 -25 21 34 c28 46 27 131
-1 173 -18 26 -79 75 -93 75 -2 0 -12 -23 -21 -51z"/>
<path d="M19023 14990 c-31 -19 -92 -102 -93 -126 0 -26 105 -32 149 -10 57
30 114 116 96 145 -11 19 -117 13 -152 -9z"/>
<path d="M15957 14963 c-24 -27 -37 -69 -37 -122 0 -39 6 -56 34 -93 50 -65
60 -66 90 -5 14 28 26 63 26 78 0 40 -25 90 -62 127 -33 31 -35 32 -51 15z"/>
<path d="M18358 14913 c-46 -50 -60 -81 -60 -131 0 -45 29 -123 50 -136 12 -7
79 63 91 97 18 46 13 94 -14 147 -14 28 -29 50 -33 50 -5 0 -20 -12 -34 -27z"/>
<path d="M19973 14890 c-24 -10 -43 -23 -43 -29 0 -16 51 -71 81 -86 37 -20
109 -19 159 1 22 9 40 18 40 21 0 18 -62 79 -95 94 -51 24 -89 23 -142 -1z"/>
<path d="M18078 14860 c-31 -17 -88 -90 -88 -113 0 -9 71 -27 108 -27 19 0 50
8 69 17 35 16 93 84 93 108 0 15 -66 35 -111 35 -19 -1 -51 -10 -71 -20z"/>
<path d="M17820 14809 c-51 -21 -91 -72 -104 -135 -6 -28 -4 -32 18 -38 38 -9
103 4 139 28 35 23 77 96 77 133 0 21 -4 23 -52 22 -29 0 -64 -5 -78 -10z"/>
<path d="M18785 14803 c-75 -39 -105 -93 -97 -171 3 -33 10 -56 19 -59 41 -16
135 68 147 130 8 43 -9 117 -27 117 -7 -1 -25 -8 -42 -17z"/>
<path d="M19425 14781 c-22 -10 -53 -31 -69 -46 l-30 -28 28 -22 c72 -58 175
-53 237 11 32 33 32 34 13 49 -64 51 -123 63 -179 36z"/>
<path d="M18530 14743 c-46 -57 -56 -100 -36 -161 9 -27 25 -57 34 -66 16 -14
20 -14 40 0 34 23 62 87 62 140 0 49 -34 124 -56 124 -7 0 -26 -17 -44 -37z"/>
<path d="M19993 14704 c-33 -17 -97 -100 -87 -115 2 -5 21 -13 42 -19 89 -24
148 -4 202 71 16 23 30 45 30 50 0 13 -61 29 -109 29 -25 0 -61 -8 -78 -16z"/>
<path d="M17965 14676 c-16 -7 -43 -28 -59 -45 -29 -30 -29 -31 -10 -46 80
-63 181 -58 247 13 l29 30 -37 28 c-43 33 -123 42 -170 20z"/>
<path d="M19629 14642 c-12 -5 -14 -13 -8 -27 6 -17 8 -17 8 -3 1 11 6 15 15
12 8 -3 17 -1 21 5 10 17 55 13 55 -4 0 -8 9 -15 20 -15 11 0 20 6 20 13 0 8
4 7 11 -3 9 -13 10 -13 7 0 -7 24 -108 39 -149 22z"/>
<path d="M19166 14609 c-79 -52 -79 -72 -3 -104 74 -31 147 -14 205 48 l34 35
-44 26 c-65 38 -130 36 -192 -5z"/>
<path d="M19582 14618 c-15 -15 -16 -38 -1 -38 5 0 7 5 4 10 -4 6 -1 17 5 25
15 18 9 20 -8 3z"/>
<path d="M18270 14592 c-14 -5 -26 -14 -28 -23 -5 -27 56 -109 93 -125 40 -16
121 -19 130 -4 4 6 11 8 16 5 5 -4 9 2 9 11 0 27 -46 99 -75 118 -29 19 -108
29 -145 18z"/>
<path d="M18842 14573 c-39 -19 -85 -70 -76 -85 11 -17 87 -48 121 -48 17 0
43 4 57 10 26 9 106 77 106 89 0 4 -20 17 -45 29 -54 26 -117 28 -163 5z"/>
<path d="M19623 14543 c9 -9 19 -14 23 -11 10 10 -6 28 -24 28 -15 0 -15 -1 1
-17z"/>
<path d="M19785 14550 c3 -5 12 -7 20 -3 21 7 19 13 -6 13 -11 0 -18 -4 -14
-10z"/>
<path d="M19728 14523 c6 -2 18 -2 25 0 6 3 1 5 -13 5 -14 0 -19 -2 -12 -5z"/>
<path d="M19996 14470 c-16 -5 -40 -19 -54 -32 -27 -25 -62 -98 -62 -130 0
-19 5 -20 60 -16 39 3 70 11 88 25 31 23 67 83 77 131 l7 32 -44 -1 c-24 0
-56 -5 -72 -9z"/>
<path d="M17612 14445 c-46 -20 -50 -40 -16 -76 40 -43 76 -59 127 -59 51 0
115 24 124 46 6 18 -38 69 -79 90 -34 18 -113 17 -156 -1z"/>
<path d="M20192 14400 c-36 -26 -62 -57 -62 -75 0 -14 88 -45 130 -45 50 0
105 28 139 71 19 25 19 27 3 42 -26 24 -69 37 -121 37 -37 0 -57 -7 -89 -30z"/>
<path d="M13185 14385 c-5 -2 -22 -6 -37 -9 -36 -8 -35 -22 2 -78 41 -62 85
-82 163 -75 81 7 87 16 51 74 -40 66 -123 107 -179 88z"/>
<path d="M14423 14371 c-35 -22 -83 -87 -83 -112 0 -21 87 -44 128 -34 48 12
91 46 118 92 34 57 25 66 -64 71 -54 2 -73 -1 -99 -17z"/>
<path d="M18318 14343 c-27 -7 -48 -19 -48 -25 0 -25 56 -91 94 -110 42 -21
101 -21 159 1 l28 11 -23 41 c-43 77 -123 109 -210 82z"/>
<path d="M19480 14350 c-13 -8 -12 -10 3 -10 9 0 17 5 17 10 0 12 -1 12 -20 0z"/>
<path d="M19580 14339 c0 -5 5 -7 10 -4 6 3 10 8 10 11 0 2 -4 4 -10 4 -5 0
-10 -5 -10 -11z"/>
<path d="M19430 14310 c-8 -5 -12 -11 -10 -14 3 -2 14 2 24 10 22 15 10 19
-14 4z"/>
<path d="M19805 14310 c-3 -5 -1 -10 4 -10 6 0 11 5 11 10 0 6 -2 10 -4 10 -3
0 -8 -4 -11 -10z"/>
<path d="M12653 14265 c-74 -37 -80 -48 -44 -78 17 -14 51 -33 76 -42 38 -15
51 -16 89 -5 24 7 59 24 77 39 l32 27 -41 33 c-39 31 -88 51 -122 51 -9 0 -39
-11 -67 -25z"/>
<path d="M19391 14274 c0 -11 3 -14 6 -6 3 7 2 16 -1 19 -3 4 -6 -2 -5 -13z"/>
<path d="M19541 14247 c-13 -21 -12 -21 5 -5 10 10 16 20 13 22 -3 3 -11 -5
-18 -17z"/>
<path d="M20004 14245 c-4 -8 -9 -13 -14 -10 -7 4 -50 -31 -50 -42 0 -4 12 4
26 18 14 13 26 23 27 21 1 -2 18 4 37 12 34 15 35 15 7 16 -16 0 -30 -6 -33
-15z"/>
<path d="M20088 14253 c6 -2 18 -2 25 0 6 3 1 5 -13 5 -14 0 -19 -2 -12 -5z"/>
<path d="M19740 14240 c0 -5 5 -10 10 -10 6 0 10 5 10 10 0 6 -4 10 -10 10 -5
0 -10 -4 -10 -10z"/>
<path d="M20150 14240 c0 -5 5 -10 11 -10 5 0 7 5 4 10 -3 6 -8 10 -11 10 -2
0 -4 -4 -4 -10z"/>
<path d="M18196 14232 c-3 -5 1 -9 9 -9 8 0 12 4 9 9 -3 4 -7 8 -9 8 -2 0 -6
-4 -9 -8z"/>
<path d="M19383 14223 c-36 -25 -27 -33 35 -31 49 1 51 2 14 5 -38 4 -41 6
-32 24 13 23 12 23 -17 2z"/>
<path d="M20116 14205 c-9 -26 -7 -32 5 -12 6 10 9 21 6 23 -2 3 -7 -2 -11
-11z"/>
<path d="M20141 14204 c0 -11 3 -14 6 -6 3 7 2 16 -1 19 -3 4 -6 -2 -5 -13z"/>
<path d="M17417 14199 c7 -7 15 -10 18 -7 3 3 -2 9 -12 12 -14 6 -15 5 -6 -5z"/>
<path d="M18080 14201 c0 -6 4 -13 10 -16 6 -3 7 1 4 9 -7 18 -14 21 -14 7z"/>
<path d="M19261 14179 c23 -33 35 -144 18 -166 -6 -7 -6 -13 0 -17 10 -7 16 8
26 66 5 28 1 50 -18 92 -14 31 -31 56 -37 56 -6 0 -1 -14 11 -31z"/>
<path d="M17528 14193 c6 -2 18 -2 25 0 6 3 1 5 -13 5 -14 0 -19 -2 -12 -5z"/>
<path d="M20297 14187 c-35 -9 -117 -78 -117 -99 0 -4 18 -17 40 -28 43 -22
119 -27 153 -9 26 13 97 80 97 91 0 11 -52 36 -96 46 -22 5 -55 4 -77 -1z"/>
<path d="M13148 14165 c-11 -11 14 -90 38 -122 31 -40 70 -62 126 -69 60 -7
72 3 59 52 -17 63 -48 104 -94 124 -39 18 -117 27 -129 15z"/>
<path d="M18691 14165 c3 -22 -2 -36 -10 -30 -5 3 -19 -8 -31 -25 -12 -16 -17
-30 -11 -30 6 0 17 12 25 28 8 15 15 23 16 18 0 -5 7 -3 15 4 12 10 15 10 15
-3 0 -9 5 -19 10 -22 18 -11 11 22 -10 46 -11 13 -20 20 -19 14z"/>
<path d="M19510 14150 c-88 -18 -134 -58 -150 -132 -17 -81 -16 -82 37 -74 60
8 121 48 137 89 17 41 28 115 19 120 -5 2 -24 0 -43 -3z"/>
<path d="M20080 14140 c-8 -5 -10 -10 -5 -10 6 0 17 5 25 10 8 5 11 10 5 10
-5 0 -17 -5 -25 -10z"/>
<path d="M20554 14121 c-35 -25 -74 -70 -74 -86 0 -12 77 -35 120 -35 55 0
102 27 138 80 l23 35 -38 17 c-60 27 -123 23 -169 -11z"/>
<path d="M14773 14121 c-35 -22 -83 -86 -83 -112 0 -16 63 -39 106 -39 40 0
107 44 135 88 16 25 29 49 29 53 0 12 -69 29 -115 29 -22 0 -54 -9 -72 -19z"/>
<path d="M17400 14130 c-33 -8 -120 -86 -120 -108 0 -17 84 -47 127 -46 49 1
109 37 136 83 22 38 22 38 -10 54 -39 20 -92 26 -133 17z"/>
<path d="M19696 14130 c-34 -11 -70 -42 -98 -89 -20 -32 -21 -34 -3 -47 23
-17 95 -28 132 -20 34 8 59 29 97 78 34 46 29 63 -21 77 -44 13 -67 13 -107 1z"/>
<path d="M19990 14129 c-19 -5 -14 -7 23 -8 26 -1 47 1 47 3 0 8 -46 12 -70 5z"/>
<path d="M19187 14123 c-11 -10 -8 -53 3 -53 6 0 10 14 10 30 0 31 -2 35 -13
23z"/>
<path d="M13444 14073 c3 -26 18 -65 32 -86 28 -42 64 -61 137 -72 44 -7 47
-6 47 14 0 111 -76 191 -181 191 l-42 0 7 -47z"/>
<path d="M18028 14103 c-42 -11 19 -129 82 -160 35 -16 123 -23 136 -10 12 11
-15 84 -42 117 -42 49 -112 70 -176 53z"/>
<path d="M19031 14075 c-35 -40 -54 -102 -45 -142 8 -34 52 -113 63 -113 4 0
17 10 28 23 39 42 63 92 63 131 0 42 -45 136 -66 136 -6 0 -26 -16 -43 -35z"/>
<path d="M19240 14089 c0 -5 5 -7 10 -4 6 3 10 8 10 11 0 2 -4 4 -10 4 -5 0
-10 -5 -10 -11z"/>
<path d="M19974 14070 c-33 -7 -81 -38 -105 -66 -12 -14 -10 -19 14 -40 36
-31 97 -48 140 -40 41 8 117 60 117 81 0 16 -71 60 -110 68 -14 2 -39 1 -56
-3z"/>
<path d="M19236 14042 c-3 -5 -19 -7 -36 -4 -28 4 -30 3 -22 -19 13 -34 27
-34 52 1 12 16 19 30 16 30 -3 0 -7 -4 -10 -8z"/>
<path d="M17826 14025 c-54 -19 -92 -59 -105 -110 -20 -81 -18 -86 37 -79 102
14 162 77 162 170 0 31 -3 34 -27 34 -16 -1 -45 -7 -67 -15z"/>
<path d="M18716 14024 c-11 -29 -6 -44 14 -44 23 0 25 17 6 43 -12 16 -14 16
-20 1z"/>
<path d="M18625 13991 c5 -34 12 -48 19 -40 2 2 -3 20 -10 39 l-14 35 5 -34z"/>
<path d="M18843 13990 c-63 -38 -88 -106 -68 -184 18 -70 27 -74 75 -36 68 54
88 120 60 204 -13 41 -23 44 -67 16z"/>
<path d="M19241 14001 c-11 -7 -10 -11 4 -19 17 -9 17 -10 -2 -20 -11 -6 -24
-8 -28 -4 -4 4 -6 1 -3 -7 2 -8 10 -17 18 -19 7 -3 10 0 6 7 -4 6 -1 11 9 11
20 0 29 24 18 44 -5 10 -13 12 -22 7z"/>
<path d="M18706 13952 c-2 -4 -1 -14 4 -22 7 -11 9 -9 7 8 -1 24 -3 26 -11 14z"/>
<path d="M20458 13953 c16 -6 15 -23 -2 -23 -8 0 -17 -7 -20 -16 -8 -22 -8
-26 4 -19 6 4 11 -6 11 -22 l1 -28 7 30 c5 25 12 31 41 35 41 6 53 34 18 44
-27 7 -79 7 -60 -1z"/>
<path d="M18656 13934 c-7 -18 19 -50 29 -34 5 9 -10 50 -19 50 -2 0 -7 -7
-10 -16z"/>
<path d="M20420 13939 c0 -5 5 -7 10 -4 6 3 10 8 10 11 0 2 -4 4 -10 4 -5 0
-10 -5 -10 -11z"/>
<path d="M19470 13928 c-64 -18 -103 -68 -115 -151 l-7 -47 48 6 c101 14 144
57 157 157 7 46 6 47 -21 46 -15 0 -43 -5 -62 -11z"/>
<path d="M20225 13933 c17 -3 34 -11 38 -19 9 -15 37 -19 37 -6 0 14 -48 32
-78 31 -26 -2 -26 -2 3 -6z"/>
<path d="M20567 13919 c12 -12 25 -20 28 -17 3 3 -7 13 -22 23 l-28 17 22 -23z"/>
<path d="M20723 13930 c-20 -8 -21 -12 -11 -40 26 -77 113 -127 196 -114 60 9
65 15 48 55 -21 47 -45 74 -83 93 -34 17 -114 20 -150 6z"/>
<path d="M18338 13890 c-66 -55 -83 -143 -42 -222 18 -34 28 -35 69 -4 41 32
65 83 65 138 -1 43 -26 109 -45 115 -6 2 -27 -10 -47 -27z"/>
<path d="M20160 13910 c0 -5 5 -10 10 -10 6 0 10 5 10 10 0 6 -4 10 -10 10 -5
0 -10 -4 -10 -10z"/>
<path d="M20193 13908 c2 -7 10 -13 17 -13 7 0 15 6 18 13 2 7 -5 12 -18 12
-13 0 -20 -5 -17 -12z"/>
<path d="M18542 13886 c-42 -93 -35 -158 24 -218 43 -45 55 -47 76 -10 24 40
32 96 18 136 -10 32 -83 116 -100 116 -4 0 -12 -11 -18 -24z"/>
<path d="M16806 13863 c18 -98 81 -153 176 -153 l41 0 -7 46 c-11 86 -81 143
-174 144 l-43 0 7 -37z"/>
<path d="M20335 13880 c10 -11 20 -20 23 -20 3 0 -3 9 -13 20 -10 11 -20 20
-23 20 -3 0 3 -9 13 -20z"/>
<path d="M21130 13885 c-10 -12 -9 -16 4 -21 9 -4 20 -4 23 0 4 3 0 6 -8 6
-12 0 -12 2 0 9 8 5 9 11 3 15 -5 3 -15 -1 -22 -9z"/>
<path d="M19235 13873 c-80 -42 -110 -93 -102 -176 3 -33 9 -63 14 -68 11 -11
102 40 125 71 24 32 32 86 24 144 -8 50 -15 53 -61 29z"/>
<path d="M20600 13872 c0 -15 4 -20 16 -15 9 3 12 9 7 12 -4 3 -11 10 -15 15
-5 5 -8 0 -8 -12z"/>
<path d="M21010 13880 c0 -5 5 -10 10 -10 6 0 10 5 10 10 0 6 -4 10 -10 10 -5
0 -10 -4 -10 -10z"/>
<path d="M20477 13873 c-4 -3 -7 -14 -7 -24 0 -12 6 -16 20 -12 22 6 22 6 14
27 -7 17 -16 20 -27 9z"/>
<path d="M21200 13853 c0 -7 -5 -12 -11 -10 -6 1 -14 -5 -16 -13 -4 -13 -3
-13 6 -1 8 12 12 10 22 -12 6 -14 16 -24 20 -21 5 3 6 -1 3 -9 -3 -9 -14 -12
-31 -9 -15 3 -29 -1 -34 -9 -7 -11 -9 -11 -9 -1 0 7 -4 10 -10 7 -34 -21 12
-32 78 -19 27 5 29 9 22 33 -4 14 -13 25 -19 23 -7 -1 -10 2 -6 8 3 5 1 18 -4
27 -6 10 -11 12 -11 6z"/>
<path d="M19916 13835 c-17 -13 -16 -14 13 -13 25 1 29 4 20 15 -6 7 -12 13
-13 13 0 0 -9 -7 -20 -15z"/>
<path d="M19992 13833 c-15 -12 -14 -13 13 -8 27 5 30 3 31 -20 1 -14 -3 -25
-9 -25 -6 0 -7 -3 -4 -7 9 -9 48 27 41 38 -3 5 0 9 6 9 6 0 9 4 6 9 -10 16
-66 18 -84 4z"/>
<path d="M20490 13820 c0 -6 9 -10 20 -10 11 0 20 -4 20 -9 0 -12 74 -24 100
-16 30 10 25 28 -7 22 -15 -3 -38 0 -52 5 -38 15 -81 19 -81 8z"/>
<path d="M20100 13810 c-9 -6 -10 -10 -3 -10 6 0 15 5 18 10 8 12 4 12 -15 0z"/>
<path d="M20216 13805 c10 -8 24 -14 29 -14 6 0 1 6 -9 14 -11 8 -24 15 -30
15 -5 0 -1 -7 10 -15z"/>
<path d="M21046 13808 c3 -5 10 -6 15 -3 13 9 11 12 -6 12 -8 0 -12 -4 -9 -9z"/>
<path d="M18965 13800 c-3 -5 3 -10 15 -10 12 0 18 5 15 10 -3 6 -10 10 -15
10 -5 0 -12 -4 -15 -10z"/>
<path d="M19863 13788 c-20 -26 -23 -37 -14 -43 6 -3 17 8 26 25 15 29 7 42
-12 18z"/>
<path d="M20060 13770 c-14 -11 -20 -20 -14 -20 6 0 19 9 29 20 23 25 17 25
-15 0z"/>
<path d="M18934 13753 c-19 -28 -28 -127 -10 -116 4 3 6 25 3 49 -2 24 -1 42
2 39 4 -2 12 9 18 26 14 36 11 37 -13 2z"/>
<path d="M18980 13758 c-12 -13 -18 -29 -14 -38 4 -8 9 -27 12 -42 2 -16 9
-28 14 -28 6 0 8 9 5 20 -3 10 -1 20 5 22 5 2 12 22 15 46 6 48 -5 54 -37 20z"/>
<path d="M19900 13730 c0 -5 7 -10 16 -10 8 0 12 5 9 10 -3 6 -10 10 -16 10
-5 0 -9 -4 -9 -10z"/>
<path d="M20005 13730 c-3 -5 -2 -10 4 -10 5 0 13 5 16 10 3 6 2 10 -4 10 -5
0 -13 -4 -16 -10z"/>
<path d="M20487 13733 c-21 -5 -17 -26 17 -88 33 -61 76 -85 154 -85 l65 0 -6
35 c-17 103 -122 166 -230 138z"/>
<path d="M19036 13708 c-8 -32 -7 -66 2 -71 4 -3 7 17 8 44 1 55 -1 59 -10 27z"/>
<path d="M19955 13720 c27 -12 43 -12 25 0 -8 5 -22 9 -30 9 -10 0 -8 -3 5 -9z"/>
<path d="M12606 13705 c-9 -24 10 -115 31 -143 24 -33 97 -72 136 -72 l29 0
-4 60 c-3 39 -11 70 -25 88 -37 51 -155 98 -167 67z"/>
<path d="M20201 13711 c-12 -8 -9 -19 15 -68 37 -75 91 -106 171 -100 29 2 56
7 60 11 12 11 -49 117 -80 140 -30 22 -142 34 -166 17z"/>
<path d="M20816 13706 c11 -8 35 -14 53 -14 20 1 27 4 20 9 -7 4 -17 5 -21 3
-4 -3 -8 0 -8 5 0 6 -15 11 -32 11 -31 0 -32 -1 -12 -14z"/>
<path d="M17941 13691 c-34 -9 -34 -19 -3 -75 37 -68 77 -88 164 -84 37 2 70
6 73 10 10 9 -30 80 -62 110 -47 44 -106 58 -172 39z"/>
<path d="M18775 13658 c-34 -40 -55 -88 -55 -125 0 -33 33 -104 60 -128 19
-17 20 -17 40 6 29 33 60 99 60 129 0 28 -29 94 -58 128 l-19 24 -28 -34z"/>
<path d="M21058 13683 c-23 -6 -22 -20 5 -68 32 -57 95 -88 164 -81 82 9 85
12 67 49 -21 42 -53 76 -86 93 -25 13 -112 17 -150 7z"/>
<path d="M20890 13663 c0 -16 2 -16 10 -3 9 13 12 12 25 -4 8 -11 15 -15 15
-10 0 14 -22 34 -37 34 -7 0 -13 -8 -13 -17z"/>
<path d="M13683 13633 c-19 -100 -1 -152 71 -204 50 -37 61 -36 75 2 22 64 10
132 -32 177 -19 21 -87 62 -101 62 -3 0 -8 -17 -13 -37z"/>
<path d="M18455 13660 c-3 -5 -2 -10 4 -10 5 0 13 5 16 10 3 6 2 10 -4 10 -5
0 -13 -4 -16 -10z"/>
<path d="M18495 13650 c3 -5 8 -10 11 -10 2 0 4 5 4 10 0 6 -5 10 -11 10 -5 0
-7 -4 -4 -10z"/>
<path d="M19772 13641 c-29 -10 -55 -21 -59 -24 -10 -11 44 -81 79 -102 42
-25 121 -25 168 -1 19 10 37 20 39 22 8 7 -50 73 -81 92 -50 30 -87 34 -146
13z"/>
<path d="M20060 13650 c0 -5 14 -10 32 -10 36 0 35 4 -4 14 -17 4 -28 2 -28
-4z"/>
<path d="M20032 13615 c0 -16 2 -22 5 -12 2 9 2 23 0 30 -3 6 -5 -1 -5 -18z"/>
<path d="M18426 13613 c-6 -14 -5 -15 5 -6 7 7 10 15 7 18 -3 3 -9 -2 -12 -12z"/>
<path d="M19024 13610 c0 -13 4 -16 10 -10 7 7 7 13 0 20 -6 6 -10 3 -10 -10z"/>
<path d="M18485 13612 c6 -4 10 -20 10 -36 0 -16 6 -31 13 -33 8 -3 12 6 12
24 0 29 -15 53 -34 53 -7 0 -8 -3 -1 -8z"/>
<path d="M18934 13609 c-4 -7 1 -16 10 -21 9 -5 16 -16 16 -24 0 -29 17 -4 18
26 0 23 -4 30 -18 30 -10 0 -22 -5 -26 -11z"/>
<path d="M20116 13611 c-3 -4 9 -8 25 -9 16 -1 29 1 29 5 0 10 -49 13 -54 4z"/>
<path d="M20890 13609 c0 -5 5 -7 10 -4 6 3 10 8 10 11 0 2 -4 4 -10 4 -5 0
-10 -5 -10 -11z"/>
<path d="M18387 13590 c-3 -11 -2 -20 3 -20 4 0 10 9 13 20 3 11 2 20 -3 20
-4 0 -10 -9 -13 -20z"/>
<path d="M20830 13600 c0 -5 -7 -6 -17 -3 -11 4 -14 3 -9 -6 5 -7 16 -9 29 -5
20 6 20 5 8 -10 -13 -16 -12 -16 12 -5 31 14 34 24 11 33 -23 9 -34 7 -34 -4z"/>
<path d="M20928 13588 c-26 -26 -22 -38 11 -38 25 0 28 3 23 25 -6 33 -13 36
-34 13z m22 -18 c0 -5 -7 -10 -16 -10 -8 0 -12 5 -9 10 3 6 10 10 16 10 5 0 9
-4 9 -10z"/>
<path d="M20055 13590 c-3 -5 1 -10 10 -10 9 0 13 5 10 10 -3 6 -8 10 -10 10
-2 0 -7 -4 -10 -10z"/>
<path d="M17376 13580 c-65 -20 -116 -95 -116 -171 l0 -42 41 7 c84 13 130 56
148 137 17 70 15 79 -16 78 -16 0 -41 -5 -57 -9z"/>
<path d="M19515 13570 c-8 -13 5 -13 25 0 13 8 13 10 -2 10 -9 0 -20 -4 -23
-10z"/>
<path d="M19565 13560 c4 -6 11 -8 16 -5 14 9 11 15 -7 15 -8 0 -12 -5 -9 -10z"/>
<path d="M14810 13548 c-76 -22 -129 -90 -130 -167 l0 -34 52 7 c59 8 94 24
124 58 25 26 57 115 50 135 -6 15 -45 16 -96 1z"/>
<path d="M20060 13532 c12 -18 24 -31 27 -28 3 2 -7 17 -22 33 l-28 28 23 -33z"/>
<path d="M19467 13534 c3 -9 9 -12 12 -7 3 4 10 11 15 16 5 4 0 7 -12 7 -15 0
-20 -4 -15 -16z"/>
<path d="M19681 13524 c0 -11 3 -14 6 -6 3 7 2 16 -1 19 -3 4 -6 -2 -5 -13z"/>
<path d="M20918 13533 c12 -2 30 -2 40 0 9 3 -1 5 -23 4 -22 0 -30 -2 -17 -4z"/>
<path d="M18617 13499 c-37 -28 -67 -89 -67 -136 0 -37 32 -123 46 -123 11 0
78 62 91 84 17 30 16 109 -3 156 -18 45 -28 48 -67 19z"/>
<path d="M20155 13501 c-3 -5 1 -12 7 -15 7 -4 3 -4 -10 -2 -12 2 -20 0 -16
-5 6 -11 35 -12 51 -1 9 6 7 11 -7 20 -11 6 -22 8 -25 3z"/>
<path d="M20370 13495 c0 -9 16 -23 36 -31 37 -16 67 -64 57 -93 -5 -14 -4
-14 11 0 14 13 15 19 4 40 -24 45 -43 66 -75 83 -30 15 -33 15 -33 1z"/>
<path d="M20705 13490 c26 -6 27 -8 12 -15 -13 -6 -15 -10 -7 -15 7 -4 9 -13
5 -20 -6 -9 -9 -9 -16 1 -7 11 -9 11 -9 1 0 -22 30 -26 45 -6 11 16 11 20 0
24 -11 4 -11 7 1 17 8 8 15 9 19 3 4 -6 11 -7 17 -4 18 11 -14 24 -57 23 -38
-1 -39 -2 -10 -9z"/>
<path d="M18400 13470 c0 -5 5 -10 11 -10 5 0 7 5 4 10 -3 6 -8 10 -11 10 -2
0 -4 -4 -4 -10z"/>
<path d="M19528 13468 c5 -5 16 -8 23 -6 8 3 3 7 -10 11 -17 4 -21 3 -13 -5z"/>
<path d="M19585 13470 c-3 -5 -1 -10 4 -10 6 0 11 5 11 10 0 6 -2 10 -4 10 -3
0 -8 -4 -11 -10z"/>
<path d="M19619 13473 c0 -5 -2 -15 -4 -25 -3 -14 1 -15 29 -6 44 15 47 21 6
14 -19 -3 -29 -3 -22 0 6 3 12 10 12 15 0 11 -20 12 -21 2z"/>
<path d="M17975 13460 c-8 -13 11 -79 34 -117 25 -41 61 -59 134 -68 52 -7 57
-6 57 12 0 63 -53 146 -102 161 -54 17 -116 23 -123 12z"/>
<path d="M18380 13459 c0 -8 5 -21 10 -29 8 -12 12 -13 19 -2 4 8 12 13 17 12
5 -1 10 3 12 9 2 6 -3 8 -12 5 -9 -3 -23 -1 -31 6 -12 10 -15 10 -15 -1z"/>
<path d="M19273 13454 c-18 -8 -33 -17 -33 -21 0 -22 59 -85 97 -104 48 -23
90 -22 157 6 l37 16 -18 31 c-10 17 -36 44 -57 59 -32 24 -48 29 -95 28 -31 0
-71 -7 -88 -15z"/>
<path d="M20826 13458 c5 -7 2 -9 -9 -5 -8 3 -21 -1 -28 -9 -10 -12 -9 -13 6
-8 10 4 21 1 26 -7 7 -11 9 -11 9 4 0 9 5 17 11 17 5 0 7 5 4 10 -3 6 -11 10
-16 10 -6 0 -7 -5 -3 -12z"/>
<path d="M19955 13423 c17 -95 67 -146 156 -158 68 -9 75 -1 55 67 -25 86 -82
128 -173 128 l-45 0 7 -37z"/>
<path d="M20415 13440 c3 -5 11 -10 16 -10 6 0 7 5 4 10 -3 6 -11 10 -16 10
-6 0 -7 -4 -4 -10z"/>
<path d="M17614 13421 c-60 -27 -87 -72 -92 -149 -6 -85 3 -92 71 -58 80 39
113 100 101 184 -7 48 -17 51 -80 23z"/>
<path d="M20852 13413 c-1 -34 17 -83 30 -83 10 0 3 45 -13 88 -11 29 -16 28
-17 -5z"/>
<path d="M20770 13399 c0 -5 9 -9 20 -9 11 0 20 2 20 4 0 2 -9 6 -20 9 -11 3
-20 1 -20 -4z"/>
<path d="M15618 13393 c-23 -6 -23 -9 11 -69 35 -61 77 -84 149 -84 78 0 85 5
66 48 -30 74 -88 113 -163 111 -25 -1 -54 -3 -63 -6z"/>
<path d="M19645 13390 c-16 -3 -31 -12 -33 -20 -4 -13 -3 -13 11 -2 20 17 40
6 32 -18 -3 -10 -1 -21 5 -25 6 -4 10 6 10 26 0 30 1 31 33 25 17 -3 38 -2 46
3 16 11 -60 19 -104 11z"/>
<path d="M20330 13382 c0 -4 9 -13 21 -20 19 -12 19 -11 9 8 -10 19 -30 28
-30 12z"/>
<path d="M20734 13371 c21 -23 26 -26 26 -11 0 5 -10 15 -22 21 -23 12 -23 12
-4 -10z"/>
<path d="M17787 13363 c-3 -5 -8 -29 -12 -54 -7 -48 10 -106 42 -141 20 -22
103 -61 112 -52 3 3 6 38 6 78 0 62 -4 76 -25 103 -14 17 -44 40 -68 52 -48
24 -49 24 -55 14z"/>
<path d="M13373 13311 c12 -99 64 -155 165 -176 l32 -7 0 49 c0 100 -60 167
-161 180 l-42 6 6 -52z"/>
<path d="M17385 13340 c-70 -36 -119 -129 -100 -190 8 -26 30 -25 85 3 59 29
90 83 90 155 0 61 -10 65 -75 32z"/>
<path d="M20232 13330 c0 -19 2 -27 5 -17 2 9 2 25 0 35 -3 9 -5 1 -5 -18z"/>
<path d="M18407 13320 c-55 -65 -59 -136 -12 -216 23 -39 29 -43 42 -32 35 28
73 102 73 141 0 43 -45 137 -66 137 -7 0 -23 -13 -37 -30z"/>
<path d="M19809 13332 c6 -9 20 -28 31 -42 l21 -25 -17 37 c-10 20 -23 39 -31
42 -10 4 -11 1 -4 -12z"/>
<path d="M20260 13346 c0 -2 7 -6 15 -10 8 -3 15 -1 15 4 0 6 -7 10 -15 10 -8
0 -15 -2 -15 -4z"/>
<path d="M19626 13328 c14 -25 37 -48 48 -48 6 1 1 9 -11 19 -13 11 -23 24
-23 30 0 6 -5 11 -11 11 -5 0 -7 -6 -3 -12z"/>
<path d="M20478 13333 c7 -3 16 -2 19 1 4 3 -2 6 -13 5 -11 0 -14 -3 -6 -6z"/>
<path d="M21096 13324 c-12 -30 -6 -106 11 -141 20 -43 97 -95 133 -91 23 3
25 8 28 58 3 70 -27 126 -83 156 -60 33 -82 37 -89 18z"/>
<path d="M20339 13314 c21 -15 21 -18 7 -26 -9 -5 -16 -14 -16 -21 0 -8 3 -7
9 2 5 7 13 11 19 7 6 -3 9 0 8 8 -3 19 -26 46 -39 46 -6 0 -1 -7 12 -16z"/>
<path d="M14141 13275 c-51 -81 -42 -163 27 -229 l30 -28 27 40 c51 77 46 156
-14 223 l-38 44 -32 -50z"/>
<path d="M19070 13291 c0 -8 -6 -11 -16 -7 -12 5 -15 2 -10 -10 3 -8 6 -21 6
-27 1 -7 8 1 16 16 9 16 13 31 10 35 -3 3 -6 0 -6 -7z"/>
<path d="M19710 13270 l-25 -7 27 -7 c14 -4 35 -6 45 -3 14 4 13 5 -5 6 -13 0
-20 6 -17 11 3 6 5 10 3 9 -2 -1 -14 -4 -28 -9z"/>
<path d="M20230 13265 c0 -8 5 -15 10 -15 6 0 10 7 10 15 0 8 -4 15 -10 15 -5
0 -10 -7 -10 -15z"/>
<path d="M17987 13253 c-4 -3 -7 -34 -7 -68 0 -79 25 -119 99 -159 64 -34 71
-29 71 57 0 74 -19 111 -78 148 -45 28 -72 36 -85 22z"/>
<path d="M16840 13200 c0 -99 50 -154 159 -174 l34 -6 -7 57 c-4 32 -15 71
-24 88 -20 33 -78 69 -129 80 l-33 7 0 -52z"/>
<path d="M20381 13233 c7 -10 15 -20 16 -22 2 -2 3 5 3 17 0 14 -6 22 -16 22
-14 0 -15 -3 -3 -17z"/>
<path d="M19384 13226 c-33 -15 -94 -82 -94 -104 0 -22 70 -45 126 -40 57 5
94 28 132 84 26 39 24 46 -27 63 -45 15 -99 13 -137 -3z"/>
<path d="M12560 13211 c-47 -25 -88 -80 -69 -93 43 -28 73 -38 120 -38 59 0
106 24 140 72 18 25 19 32 8 40 -60 41 -142 49 -199 19z"/>
<path d="M19070 13211 c0 -10 19 -25 25 -20 1 2 -3 10 -11 17 -8 7 -14 8 -14
3z"/>
<path d="M20250 13211 c0 -5 7 -12 16 -15 14 -5 15 -4 4 9 -14 17 -20 19 -20
6z"/>
<path d="M19225 13200 c-3 -5 -2 -10 4 -10 5 0 13 5 16 10 3 6 2 10 -4 10 -5
0 -13 -4 -16 -10z"/>
<path d="M18872 13151 c-55 -40 -59 -50 -31 -73 69 -54 154 -61 221 -17 46 30
54 46 31 71 -30 33 -69 48 -126 48 -44 0 -62 -6 -95 -29z"/>
<path d="M20390 13159 c-13 -24 -4 -41 10 -19 10 16 13 40 5 40 -2 0 -9 -9
-15 -21z"/>
<path d="M20310 13160 c20 -13 33 -13 25 0 -3 6 -14 10 -23 10 -15 0 -15 -2
-2 -10z"/>
<path d="M17704 13128 c-16 -26 -9 -123 12 -158 20 -35 119 -99 132 -85 4 4 7
40 7 80 0 68 -2 76 -30 105 -25 27 -93 70 -109 70 -3 0 -8 -5 -12 -12z"/>
<path d="M19168 13056 c-39 -17 -78 -56 -94 -93 -18 -41 -19 -123 -2 -123 21
0 102 33 122 49 29 24 56 91 56 139 0 39 -2 42 -27 41 -16 0 -40 -6 -55 -13z"/>
<path d="M20025 13050 c3 -5 8 -10 11 -10 2 0 4 5 4 10 0 6 -5 10 -11 10 -5 0
-7 -4 -4 -10z"/>
<path d="M17940 13029 c-7 -11 -14 -44 -17 -73 -7 -65 14 -114 64 -152 46 -35
63 -25 80 50 17 76 0 119 -71 174 -36 27 -42 27 -56 1z"/>
<path d="M19384 13026 c-51 -22 -104 -109 -104 -169 0 -18 5 -19 60 -14 96 8
149 58 165 155 l7 42 -49 0 c-26 -1 -62 -7 -79 -14z"/>
<path d="M19602 13008 c-40 -28 -95 -109 -83 -121 5 -5 38 -11 73 -14 75 -6
113 9 152 60 36 47 38 79 6 88 -53 15 -115 10 -148 -13z"/>
<path d="M20155 12995 c-16 -9 -42 -28 -57 -42 -32 -31 -27 -43 36 -75 70 -36
152 -20 211 42 l27 28 -42 28 c-52 34 -130 43 -175 19z"/>
<path d="M13631 12938 c-37 -25 -91 -111 -78 -125 5 -4 43 -8 85 -8 64 0 82 4
108 22 36 26 77 103 63 118 -5 5 -40 11 -77 13 -57 3 -72 0 -101 -20z"/>
<path d="M20480 12949 c-27 -11 -90 -68 -90 -81 0 -12 72 -55 107 -62 17 -4
49 -3 70 3 42 11 113 65 113 85 0 7 -22 25 -49 39 -51 28 -106 34 -151 16z"/>
<path d="M15662 12930 l-23 -10 20 -39 c39 -76 102 -109 184 -97 67 10 74 18
48 59 -12 20 -38 49 -57 66 -30 27 -42 31 -92 30 -31 0 -67 -4 -80 -9z"/>
<path d="M16927 12908 c-47 -38 -67 -76 -67 -127 0 -44 26 -121 41 -121 21 0
99 84 108 115 13 49 -13 166 -37 165 -4 -1 -24 -15 -45 -32z"/>
<path d="M19841 12924 c0 -11 3 -14 6 -6 3 7 2 16 -1 19 -3 4 -6 -2 -5 -13z"/>
<path d="M12834 12911 c-60 -27 -94 -77 -101 -147 l-6 -57 44 7 c60 9 110 37
135 74 23 33 38 101 28 126 -8 21 -49 20 -100 -3z"/>
<path d="M18979 12863 c0 -21 -2 -56 -5 -78 -4 -39 -4 -39 11 -15 16 29 20
116 5 125 -6 4 -10 -9 -11 -32z"/>
<path d="M20805 12885 c-5 -2 -22 -6 -37 -9 -31 -7 -98 -62 -98 -80 0 -20 94
-66 134 -66 21 0 51 7 69 16 35 18 87 63 87 75 0 22 -124 73 -155 64z"/>
<path d="M12125 12865 c-47 -16 -91 -65 -97 -106 -4 -24 0 -31 28 -44 66 -31
160 10 200 86 22 44 18 57 -23 68 -48 14 -59 13 -108 -4z"/>
<path d="M18905 12870 c-3 -5 -2 -10 4 -10 5 0 13 5 16 10 3 6 2 10 -4 10 -5
0 -13 -4 -16 -10z"/>
<path d="M18855 12819 c-20 -38 -32 -129 -17 -129 6 0 13 13 17 29 3 16 13 32
22 35 14 6 14 9 -2 26 -15 17 -16 24 -7 45 16 35 6 31 -13 -6z"/>
<path d="M19735 12841 c-38 -10 -95 -39 -95 -49 0 -11 71 -78 97 -91 50 -26
193 5 193 42 0 33 -121 113 -160 106 -3 -1 -18 -4 -35 -8z"/>
<path d="M18695 12818 c-81 -28 -120 -90 -113 -176 3 -32 7 -37 31 -40 36 -4
101 37 120 75 20 39 28 88 21 123 -7 32 -13 34 -59 18z"/>
<path d="M19980 12819 c0 -33 23 -91 47 -120 34 -40 79 -59 138 -59 43 0 45 1
45 28 0 38 -39 112 -73 136 -34 25 -157 37 -157 15z"/>
<path d="M17840 12799 c-18 -33 -24 -125 -10 -158 6 -16 33 -46 58 -66 47 -36
47 -36 64 -16 20 26 32 91 23 132 -7 32 -92 129 -113 129 -6 0 -16 -9 -22 -21z"/>
<path d="M19131 12788 c-38 -19 -101 -93 -101 -119 0 -12 61 -29 104 -29 55 0
115 36 143 85 31 54 29 62 -14 74 -56 16 -83 13 -132 -11z"/>
<path d="M14109 12757 c-35 -24 -79 -81 -79 -103 0 -15 60 -34 109 -34 60 0
131 56 156 122 16 42 -129 54 -186 15z"/>
<path d="M18885 12730 c-3 -5 -1 -10 4 -10 6 0 11 5 11 10 0 6 -2 10 -4 10 -3
0 -8 -4 -11 -10z"/>
<path d="M20531 12731 c-7 -5 -12 -14 -9 -21 2 -7 10 -4 22 9 19 21 12 28 -13
12z"/>
<path d="M18431 12704 c-73 -37 -105 -87 -99 -155 3 -27 9 -54 14 -59 13 -13
103 31 138 68 30 32 44 97 32 146 -8 32 -19 32 -85 0z"/>
<path d="M18909 12714 c-7 -9 -22 -20 -34 -25 -15 -7 -13 -8 10 -4 35 7 62 30
47 39 -5 3 -16 -1 -23 -10z"/>
<path d="M19614 12680 c-38 -12 -117 -86 -108 -101 12 -19 88 -49 127 -49 67
0 167 69 153 105 -13 34 -117 61 -172 45z"/>
<path d="M20966 12609 c-22 -5 -42 -11 -44 -13 -6 -6 28 -69 52 -94 11 -13 33
-30 48 -38 50 -26 168 -13 168 19 0 28 -62 99 -103 118 -46 20 -63 22 -121 8z"/>
<path d="M17501 12599 c-76 -29 -128 -109 -116 -178 14 -83 18 -85 83 -42 65
42 85 82 80 153 -5 67 -14 80 -47 67z"/>
<path d="M19360 12580 c26 -23 38 -24 60 -9 12 9 12 10 -3 5 -10 -3 -25 1 -33
9 -9 8 -23 15 -31 15 -12 0 -11 -5 7 -20z"/>
<path d="M20158 12584 c-9 -8 8 -70 29 -106 31 -53 77 -78 144 -78 33 0 59 4
59 10 0 21 -33 106 -49 124 -24 28 -91 56 -137 56 -22 0 -43 -2 -46 -6z"/>
<path d="M20665 12580 c-3 -5 -1 -10 4 -10 6 0 11 5 11 10 0 6 -2 10 -4 10 -3
0 -8 -4 -11 -10z"/>
<path d="M19243 12565 c-15 -11 -14 -12 7 -10 14 2 36 8 50 13 24 10 24 10 -8
10 -18 -1 -40 -7 -49 -13z"/>
<path d="M18973 12527 c-24 -5 -43 -14 -43 -19 0 -5 9 -26 20 -47 41 -81 113
-113 204 -90 41 10 46 14 40 33 -29 97 -120 148 -221 123z"/>
<path d="M19388 12523 c7 -3 16 -2 19 1 4 3 -2 6 -13 5 -11 0 -14 -3 -6 -6z"/>
<path d="M19457 12523 c-3 -3 1 -12 9 -20 8 -9 18 -13 21 -10 3 3 -1 13 -10
21 -8 8 -17 12 -20 9z"/>
<path d="M14515 12510 c-27 -10 -91 -81 -100 -110 -9 -27 3 -35 57 -44 79 -13
154 29 194 107 15 28 15 31 -2 44 -20 14 -117 17 -149 3z"/>
<path d="M19279 12490 c13 -11 28 -20 35 -19 6 0 1 5 -11 11 -13 6 -23 15 -23
20 0 4 -6 8 -12 8 -7 -1 -2 -10 11 -20z"/>
<path d="M17643 12423 c-35 -83 -13 -161 59 -214 l42 -30 14 27 c7 14 16 50
19 79 5 43 1 60 -18 94 -20 36 -72 81 -93 81 -4 0 -14 -17 -23 -37z"/>
<path d="M19782 12425 c0 -16 2 -22 5 -12 2 9 2 23 0 30 -3 6 -5 -1 -5 -18z"/>
<path d="M18720 12415 c0 -8 2 -15 4 -15 2 0 6 7 10 15 3 8 1 15 -4 15 -6 0
-10 -7 -10 -15z"/>
<path d="M19483 12357 c-43 -45 -53 -69 -53 -124 0 -36 8 -60 31 -96 16 -27
35 -47 42 -45 7 3 27 26 45 52 39 58 43 118 11 182 -31 65 -41 69 -76 31z"/>
<path d="M18546 12355 c-22 -8 -50 -25 -64 -39 l-25 -24 47 -34 c62 -44 117
-52 178 -26 26 11 55 29 65 40 17 19 17 21 -12 45 -64 53 -118 64 -189 38z"/>
<path d="M18785 12349 c-4 -6 -5 -12 -2 -15 2 -3 7 2 10 11 7 17 1 20 -8 4z"/>
<path d="M19710 12340 c0 -5 5 -10 11 -10 5 0 7 5 4 10 -3 6 -8 10 -11 10 -2
0 -4 -4 -4 -10z"/>
<path d="M19730 12315 c-7 -9 -8 -15 -2 -15 5 0 12 7 16 15 3 8 4 15 2 15 -2
0 -9 -7 -16 -15z"/>
<path d="M18938 12313 c7 -3 16 -2 19 1 4 3 -2 6 -13 5 -11 0 -14 -3 -6 -6z"/>
<path d="M19660 12289 c0 -5 5 -7 10 -4 6 3 10 8 10 11 0 2 -4 4 -10 4 -5 0
-10 -5 -10 -11z"/>
<path d="M18386 12221 c-3 -5 12 -8 33 -7 21 0 37 4 34 9 -6 10 -61 9 -67 -2z"/>
<path d="M19335 12211 c-86 -53 -117 -140 -81 -226 18 -42 28 -43 73 -9 50 38
73 81 73 137 0 40 -21 117 -32 117 -2 0 -16 -8 -33 -19z"/>
<path d="M18340 12211 c0 -5 -10 -11 -21 -13 -12 -2 -27 -11 -33 -20 -8 -14
-6 -21 9 -33 43 -33 91 -54 106 -44 12 8 12 10 -1 19 -8 5 -29 10 -46 10 -17
0 -37 7 -44 15 -10 12 -9 15 5 15 11 0 15 5 11 15 -3 8 -1 15 4 15 6 0 10 -4
10 -10 0 -5 5 -10 11 -10 6 0 9 7 5 15 -3 8 -1 15 4 15 6 0 10 5 10 10 0 6 -7
10 -15 10 -8 0 -15 -4 -15 -9z m-30 -35 c0 -3 -4 -8 -10 -11 -5 -3 -10 -1 -10
4 0 6 5 11 10 11 6 0 10 -2 10 -4z"/>
<path d="M18460 12185 c-10 -12 -7 -14 21 -10 19 2 36 -1 41 -8 4 -6 10 -8 14
-5 10 11 -22 38 -44 38 -11 0 -25 -7 -32 -15z"/>
<path d="M18840 12190 c0 -6 7 -10 15 -10 8 0 15 2 15 4 0 2 -7 6 -15 10 -8 3
-15 1 -15 -4z"/>
<path d="M19990 12182 c-21 -12 -48 -40 -68 -73 -37 -61 -34 -65 42 -75 70
-10 131 17 167 74 16 25 29 53 29 63 0 32 -115 40 -170 11z"/>
<path d="M20255 12175 c-22 -8 -41 -15 -42 -15 -7 0 -73 -95 -73 -105 0 -14
65 -35 109 -35 17 0 46 6 65 14 37 15 96 82 96 109 0 33 -95 53 -155 32z"/>
<path d="M20704 12178 c-7 -10 45 -9 71 2 14 5 8 7 -23 6 -24 0 -46 -4 -48 -8z"/>
<path d="M14853 12174 c-12 -3 -26 -11 -32 -18 -15 -18 39 -100 81 -122 37
-20 117 -22 161 -5 l28 11 -23 41 c-34 62 -79 92 -141 95 -29 1 -62 0 -74 -2z"/>
<path d="M17560 12169 c-80 -32 -128 -111 -116 -191 11 -71 17 -74 72 -44 63
35 86 67 92 127 5 51 -4 119 -16 118 -4 0 -18 -5 -32 -10z"/>
<path d="M13363 12164 c-12 -3 -26 -11 -32 -18 -16 -19 44 -104 89 -128 39
-20 112 -23 152 -5 l28 12 -23 44 c-32 63 -77 94 -140 97 -29 1 -62 0 -74 -2z"/>
<path d="M19695 12121 c-16 -10 -38 -27 -47 -37 -22 -25 -51 -94 -43 -103 4
-3 40 -6 80 -6 89 0 116 16 158 93 l28 52 -26 10 c-42 16 -117 12 -150 -9z"/>
<path d="M18424 12118 c-8 -12 14 -18 45 -12 47 10 47 22 0 20 -23 0 -43 -4
-45 -8z"/>
<path d="M19165 12100 c-3 -5 -2 -10 4 -10 5 0 13 5 16 10 3 6 2 10 -4 10 -5
0 -13 -4 -16 -10z"/>
<path d="M20723 12088 c-1 -11 1 -16 5 -12 4 5 11 12 15 15 5 3 2 9 -5 12 -9
3 -14 -3 -15 -15z"/>
<path d="M19166 12075 c-11 -8 -14 -15 -7 -15 6 0 11 -6 10 -12 -5 -26 14
-108 22 -102 5 3 6 17 3 31 -5 18 -3 24 5 19 13 -8 14 15 5 63 -7 35 -11 36
-38 16z"/>
<path d="M18788 12073 c7 -3 16 -2 19 1 4 3 -2 6 -13 5 -11 0 -14 -3 -6 -6z"/>
<path d="M18848 12073 c7 -3 16 -2 19 1 4 3 -2 6 -13 5 -11 0 -14 -3 -6 -6z"/>
<path d="M13953 11990 c-29 -17 -53 -32 -53 -35 0 -9 56 -57 84 -72 56 -29
136 -16 200 32 19 15 19 16 -9 45 -64 67 -140 77 -222 30z"/>
<path d="M18932 11999 c-24 -12 -55 -38 -70 -57 -23 -31 -27 -45 -27 -103 0
-38 5 -73 11 -79 15 -15 78 17 119 59 25 28 30 41 33 99 2 45 -1 73 -10 85
-12 16 -15 16 -56 -4z"/>
<path d="M19066 12004 c-4 -10 -1 -14 6 -12 15 5 23 28 10 28 -5 0 -13 -7 -16
-16z"/>
<path d="M12884 11976 c-18 -8 -35 -19 -38 -25 -4 -6 15 -33 42 -60 36 -36 59
-50 89 -56 44 -7 107 6 138 29 19 13 18 15 -9 51 -16 20 -42 45 -60 56 -37 22
-116 25 -162 5z"/>
<path d="M19842 11970 c-50 -31 -83 -72 -69 -88 35 -43 149 -55 203 -21 40 24
78 74 68 90 -24 40 -149 51 -202 19z"/>
<path d="M20200 11970 c-11 -7 -6 -10 20 -10 26 0 31 3 20 10 -8 5 -17 10 -20
10 -3 0 -12 -5 -20 -10z"/>
<path d="M20546 11945 c-47 -17 -101 -67 -93 -88 7 -20 73 -49 124 -55 45 -5
108 24 146 66 23 25 17 37 -32 61 -53 28 -100 33 -145 16z"/>
<path d="M18268 11943 c6 -2 18 -2 25 0 6 3 1 5 -13 5 -14 0 -19 -2 -12 -5z"/>
<path d="M19064 11908 c4 -23 9 -44 11 -47 9 -8 85 34 85 47 0 6 -5 12 -11 12
-5 0 -7 -4 -4 -10 11 -17 -14 -11 -33 8 -10 10 -27 22 -37 25 -16 7 -17 3 -11
-35z"/>
<path d="M18228 11933 c7 -3 16 -2 19 1 4 3 -2 6 -13 5 -11 0 -14 -3 -6 -6z"/>
<path d="M14269 11910 c-56 -29 -66 -46 -43 -72 25 -28 91 -58 130 -58 36 0
133 46 141 68 8 20 -37 58 -85 71 -54 16 -102 13 -143 -9z"/>
<path d="M18730 11911 c0 -5 6 -11 14 -14 8 -3 16 -21 19 -39 3 -26 4 -23 5
15 2 41 -1 47 -18 47 -11 0 -20 -4 -20 -9z"/>
<path d="M19535 11906 c-16 -8 -46 -28 -65 -45 l-35 -31 30 -25 c64 -54 146
-58 215 -10 66 45 62 68 -15 104 -51 24 -87 26 -130 7z"/>
<path d="M18661 11886 c-8 -9 -11 -19 -7 -23 3 -3 6 0 6 8 0 12 2 12 10 -1 12
-19 19 -10 11 13 -6 17 -8 18 -20 3z"/>
<path d="M18420 11836 c-74 -37 -111 -111 -95 -192 6 -33 8 -35 33 -29 15 3
47 18 70 32 50 28 81 85 82 145 0 74 -16 82 -90 44z"/>
<path d="M12712 11833 c-13 -3 -44 -25 -70 -49 l-47 -45 25 -19 c36 -27 103
-43 146 -35 23 4 53 22 82 50 54 50 50 64 -25 89 -46 16 -66 17 -111 9z"/>
<path d="M20800 11829 c-25 -10 -100 -77 -100 -90 0 -18 89 -49 142 -49 50 0
59 4 102 41 25 22 46 47 46 54 0 17 -91 55 -132 54 -18 0 -44 -5 -58 -10z"/>
<path d="M20000 11821 c0 -5 -10 -12 -22 -16 -15 -4 -18 -8 -10 -12 7 -3 21 2
30 10 9 8 28 17 42 20 21 4 20 4 -7 6 -18 0 -33 -3 -33 -8z"/>
<path d="M20088 11823 c7 -3 16 -2 19 1 4 3 -2 6 -13 5 -11 0 -14 -3 -6 -6z"/>
<path d="M13925 11804 c-38 -20 -85 -64 -85 -81 0 -22 78 -54 131 -55 54 0
113 32 143 77 18 27 11 36 -47 60 -47 19 -104 19 -142 -1z"/>
<path d="M20116 11811 c-4 -5 -2 -12 3 -15 5 -4 12 -2 15 3 4 5 2 12 -3 15 -5
4 -12 2 -15 -3z"/>
<path d="M20293 11797 c-47 -18 -49 -23 -18 -68 50 -71 131 -95 214 -65 44 16
47 25 18 66 -49 73 -129 98 -214 67z"/>
<path d="M13135 11756 c-58 -26 -105 -94 -105 -152 0 -27 106 -23 158 5 31 16
71 83 74 123 3 33 3 33 -47 35 -27 2 -63 -3 -80 -11z"/>
<path d="M19318 11738 c-27 -11 -48 -26 -48 -32 0 -18 71 -83 103 -95 16 -6
43 -11 60 -11 34 0 110 31 121 48 10 16 -44 73 -89 93 -52 24 -89 23 -147 -3z"/>
<path d="M19750 11750 c0 -5 7 -7 15 -4 8 4 15 8 15 10 0 2 -7 4 -15 4 -8 0
-15 -4 -15 -10z"/>
<path d="M19951 11737 c13 -13 37 -24 53 -25 28 -2 29 -1 11 12 -11 8 -24 12
-30 9 -7 -2 -18 3 -25 12 -7 8 -17 15 -23 15 -5 0 1 -10 14 -23z"/>
<path d="M20170 11750 c-8 -5 -12 -11 -10 -14 3 -2 14 2 24 10 22 15 10 19
-14 4z"/>
<path d="M13375 11738 c-54 -29 -116 -111 -98 -128 16 -15 104 -28 140 -20 38
9 87 51 116 100 l18 30 -35 15 c-41 18 -112 19 -141 3z"/>
<path d="M18705 11740 c-3 -6 1 -7 9 -4 18 7 21 14 7 14 -6 0 -13 -4 -16 -10z"/>
<path d="M18610 11710 c0 -12 7 -20 16 -20 13 0 14 3 5 14 -9 11 -9 15 1 19 8
4 7 6 -4 6 -12 1 -18 -6 -18 -19z"/>
<path d="M19854 11722 c4 -7 2 -12 -3 -12 -6 0 -11 -4 -11 -10 0 -5 10 -10 23
-9 12 0 16 3 9 6 -6 2 -10 9 -7 13 3 5 0 12 -6 16 -8 4 -9 3 -5 -4z"/>
<path d="M20110 11720 c0 -5 4 -10 9 -10 6 0 13 5 16 10 3 6 -1 10 -9 10 -9 0
-16 -4 -16 -10z"/>
<path d="M18650 11710 c0 -5 5 -10 11 -10 5 0 7 5 4 10 -3 6 -8 10 -11 10 -2
0 -4 -4 -4 -10z"/>
<path d="M19765 11710 c-3 -6 1 -7 9 -4 18 7 21 14 7 14 -6 0 -13 -4 -16 -10z"/>
<path d="M14957 11703 c-3 -5 9 -9 26 -10 26 -1 28 0 12 7 -26 11 -33 12 -38
3z"/>
<path d="M17988 11686 c-39 -17 -78 -56 -94 -93 -15 -35 -18 -111 -6 -131 18
-28 129 34 157 88 8 16 15 55 15 90 0 56 -2 60 -22 59 -13 0 -35 -6 -50 -13z"/>
<path d="M15250 11668 c-41 -21 -99 -87 -100 -114 0 -17 85 -37 130 -31 52 7
83 27 120 79 36 49 37 56 7 67 -60 23 -111 23 -157 -1z"/>
<path d="M19913 11644 c-8 -21 11 -96 34 -130 21 -33 76 -60 137 -69 l49 -8
-7 54 c-4 30 -16 68 -26 84 -23 37 -80 70 -137 80 -36 6 -44 4 -50 -11z"/>
<path d="M20155 11647 c-8 -19 20 -85 48 -115 35 -37 72 -52 132 -52 51 0 55
2 55 24 0 41 -28 94 -66 123 -29 21 -50 28 -100 31 -50 3 -65 1 -69 -11z"/>
<path d="M20603 11634 c-24 -14 -43 -28 -43 -33 0 -10 61 -66 87 -80 35 -18
105 -13 153 12 53 27 58 38 28 67 -70 67 -150 79 -225 34z"/>
<path d="M14706 11634 c-9 -9 -15 -21 -13 -27 6 -20 26 -18 37 3 16 30 -1 47
-24 24z"/>
<path d="M14920 11609 c0 -5 5 -7 10 -4 6 3 10 8 10 11 0 2 -4 4 -10 4 -5 0
-10 -5 -10 -11z"/>
<path d="M19134 11601 c-23 -10 -44 -24 -48 -29 -11 -18 66 -89 112 -103 37
-11 50 -10 96 4 75 24 83 37 50 76 -33 40 -93 71 -136 71 -18 0 -52 -9 -74
-19z"/>
<path d="M14960 11590 c0 -5 7 -10 15 -10 8 0 15 5 15 10 0 6 -7 10 -15 10 -8
0 -15 -4 -15 -10z"/>
<path d="M20956 11581 c10 -10 21 -14 23 -8 4 10 -17 27 -33 27 -5 0 -1 -8 10
-19z"/>
<path d="M15015 11579 c-11 -16 -1 -19 13 -3 7 8 8 14 3 14 -5 0 -13 -5 -16
-11z"/>
<path d="M19570 11570 c0 -5 5 -10 11 -10 5 0 7 5 4 10 -3 6 -8 10 -11 10 -2
0 -4 -4 -4 -10z"/>
<path d="M19535 11560 c-16 -7 -17 -9 -3 -9 9 -1 20 4 23 9 7 11 7 11 -20 0z"/>
<path d="M13165 11535 c-22 -8 -52 -29 -68 -47 -29 -34 -52 -101 -42 -118 10
-16 103 -12 138 6 52 26 97 96 97 150 0 22 -4 24 -42 24 -24 -1 -61 -7 -83
-15z"/>
<path d="M14928 11543 c6 -2 18 -2 25 0 6 3 1 5 -13 5 -14 0 -19 -2 -12 -5z"/>
<path d="M15613 11532 c-17 -10 -64 -82 -54 -82 4 0 13 11 21 24 7 14 18 22
25 20 16 -6 36 19 27 33 -4 7 -13 9 -19 5z"/>
<path d="M14480 11485 c-15 -53 -9 -115 15 -151 21 -32 106 -87 117 -76 5 5
14 36 20 69 10 54 9 65 -9 99 -17 34 -100 104 -123 104 -4 0 -13 -20 -20 -45z"/>
<path d="M15428 11523 c7 -3 16 -2 19 1 4 3 -2 6 -13 5 -11 0 -14 -3 -6 -6z"/>
<path d="M15565 11520 c-3 -5 -1 -10 4 -10 6 0 11 5 11 10 0 6 -2 10 -4 10 -3
0 -8 -4 -11 -10z"/>
<path d="M15392 11508 c-17 -17 -15 -24 10 -25 16 -2 19 0 9 6 -7 5 -10 14 -7
20 9 15 3 14 -12 -1z"/>
<path d="M21077 11504 c21 -16 73 -19 73 -4 0 6 -6 10 -12 11 -7 0 -28 2 -46
4 -29 2 -31 1 -15 -11z"/>
<path d="M12588 11426 c-39 -17 -78 -56 -94 -93 -16 -36 -19 -129 -5 -137 5
-3 29 1 55 10 84 29 136 115 120 199 -7 39 -26 44 -76 21z"/>
<path d="M13361 11419 c-35 -18 -48 -33 -68 -76 -33 -71 -29 -87 24 -91 90 -7
178 64 185 148 l3 35 -50 3 c-36 2 -63 -4 -94 -19z"/>
<path d="M19373 11419 c-24 -12 -43 -27 -43 -34 0 -21 76 -83 118 -96 33 -9
48 -9 88 5 27 9 58 23 68 31 19 15 19 16 -15 51 -63 66 -139 81 -216 43z"/>
<path d="M20591 11424 c0 -11 3 -14 6 -6 3 7 2 16 -1 19 -3 4 -6 -2 -5 -13z"/>
<path d="M18523 11404 c-9 -24 27 -91 65 -121 53 -40 182 -46 182 -7 0 31 -41
94 -77 119 -31 20 -50 25 -101 25 -47 0 -64 -4 -69 -16z"/>
<path d="M19713 11399 c-24 -12 -43 -24 -43 -28 0 -10 72 -77 97 -90 35 -18
119 -13 163 9 l40 20 -17 27 c-9 14 -35 39 -57 54 -49 37 -120 39 -183 8z"/>
<path d="M18786 11383 c14 -63 49 -118 89 -140 45 -26 145 -33 145 -10 0 31
-23 89 -47 117 -36 44 -74 60 -138 60 -55 0 -55 0 -49 -27z"/>
<path d="M20303 11373 c-45 -83 -36 -147 31 -213 38 -38 42 -40 54 -23 40 51
54 140 31 186 -16 30 -70 87 -84 87 -6 0 -21 -17 -32 -37z"/>
<path d="M12835 11386 c-66 -29 -105 -90 -105 -162 l0 -36 47 7 c26 4 60 13
74 21 40 20 77 70 84 112 4 20 9 45 12 55 4 14 -2 17 -39 17 -24 -1 -56 -7
-73 -14z"/>
<path d="M20736 11378 c-13 -64 -13 -86 -1 -121 7 -21 21 -48 32 -59 24 -27
92 -61 108 -54 17 6 29 84 20 125 -12 55 -65 104 -132 125 -18 6 -23 3 -27
-16z"/>
<path d="M18288 11345 c-26 -14 -49 -29 -52 -34 -8 -12 59 -70 102 -88 22 -9
48 -12 71 -8 39 7 121 51 121 65 0 13 -61 61 -97 77 -47 19 -92 15 -145 -12z"/>
<path d="M20500 11360 c0 -5 7 -10 16 -10 8 0 12 5 9 10 -3 6 -10 10 -16 10
-5 0 -9 -4 -9 -10z"/>
<path d="M20591 11354 c0 -11 3 -14 6 -6 3 7 2 16 -1 19 -3 4 -6 -2 -5 -13z"/>
<path d="M14767 11328 c-37 -27 -67 -88 -67 -136 0 -41 34 -132 50 -132 15 0
70 52 85 81 28 53 13 163 -26 196 -11 9 -20 7 -42 -9z"/>
<path d="M13580 11329 c-51 -20 -100 -91 -100 -144 0 -24 3 -25 55 -25 84 0
131 28 162 96 14 30 22 61 19 69 -6 18 -96 20 -136 4z"/>
<path d="M19122 11319 c-8 -12 -9 -18 -3 -14 6 3 11 1 11 -6 0 -20 14 -1 15
21 2 26 -7 25 -23 -1z"/>
<path d="M21050 11263 c0 -95 81 -173 178 -173 l45 0 -6 36 c-10 58 -45 121
-81 142 -18 11 -56 23 -85 27 l-51 7 0 -39z"/>
<path d="M13864 11272 c-80 -45 -104 -83 -104 -167 0 -66 9 -69 90 -27 67 34
90 74 90 154 0 54 -2 58 -22 58 -13 -1 -37 -9 -54 -18z"/>
<path d="M14070 11257 c-65 -34 -84 -65 -88 -149 l-4 -71 28 7 c105 26 154 83
154 180 0 52 -2 56 -23 56 -13 0 -43 -10 -67 -23z"/>
<path d="M19191 11264 c0 -11 3 -14 6 -6 3 7 2 16 -1 19 -3 4 -6 -2 -5 -13z"/>
<path d="M19514 11241 c-23 -10 -45 -24 -49 -31 -17 -28 97 -109 155 -110 26
0 130 44 130 55 0 20 -46 66 -83 84 -53 26 -99 26 -153 2z"/>
<path d="M19207 11235 c-4 -8 -2 -17 3 -20 6 -4 10 3 10 14 0 25 -6 27 -13 6z"/>
<path d="M15391 11211 c-12 -8 -12 -12 -2 -25 10 -12 10 -16 2 -16 -7 0 -3
-13 10 -31 26 -38 50 -25 31 16 -7 15 -10 31 -7 36 4 5 1 9 -5 9 -6 0 -8 5 -5
10 8 12 -5 13 -24 1z"/>
<path d="M18158 11213 c7 -3 16 -2 19 1 4 3 -2 6 -13 5 -11 0 -14 -3 -6 -6z"/>
<path d="M18548 11213 c7 -3 16 -2 19 1 4 3 -2 6 -13 5 -11 0 -14 -3 -6 -6z"/>
<path d="M18593 11212 c-7 -4 10 -14 42 -23 30 -9 52 -12 49 -8 -3 5 -10 9
-15 9 -6 0 -17 7 -25 15 -17 16 -33 19 -51 7z"/>
<path d="M12977 11166 c-77 -21 -119 -71 -132 -159 -7 -47 -7 -47 21 -47 96 0
165 55 184 145 16 79 12 84 -73 61z"/>
<path d="M18090 11172 c0 -12 39 -46 45 -41 6 7 -24 49 -36 49 -5 0 -9 -4 -9
-8z"/>
<path d="M18235 11170 c3 -5 8 -10 11 -10 2 0 4 5 4 10 0 6 -5 10 -11 10 -5 0
-7 -4 -4 -10z"/>
<path d="M19207 11173 c-15 -4 -16 -7 -6 -20 8 -9 9 -17 3 -21 -6 -4 -11 -18
-11 -32 -2 -23 -1 -23 9 -6 9 15 30 89 24 85 0 -1 -9 -3 -19 -6z"/>
<path d="M19291 11138 c-30 -63 -34 -93 -21 -135 13 -40 75 -113 96 -113 18 0
54 81 54 123 0 19 -5 48 -11 64 -10 28 -76 103 -90 103 -4 0 -16 -19 -28 -42z"/>
<path d="M18830 11143 c1 -36 31 -103 58 -126 41 -37 152 -61 167 -38 11 19
-18 101 -49 135 -34 38 -79 56 -137 56 -36 0 -39 -2 -39 -27z"/>
<path d="M18710 11137 c0 -9 5 -17 11 -17 5 0 7 -5 3 -12 -4 -7 -3 -8 5 -4 9
6 9 12 -1 24 -7 10 -14 19 -15 21 -2 2 -3 -3 -3 -12z"/>
<path d="M18520 11122 c0 -4 9 -13 20 -20 11 -7 20 -9 20 -4 0 4 -9 13 -20 20
-11 7 -20 9 -20 4z"/>
<path d="M19120 11121 c0 -10 19 -25 25 -20 1 2 -3 10 -11 17 -8 7 -14 8 -14
3z"/>
<path d="M15513 11090 c1 -11 7 -20 14 -20 7 0 13 9 13 20 0 11 -6 20 -14 20
-9 0 -14 -9 -13 -20z"/>
<path d="M18313 11078 c-17 -6 -47 -23 -65 -39 l-33 -29 30 -26 c38 -33 86
-54 122 -54 36 1 103 31 127 59 18 20 18 22 2 40 -39 44 -128 67 -183 49z"/>
<path d="M18576 11079 c3 -5 24 -9 46 -9 51 0 47 5 -10 13 -24 3 -40 1 -36 -4z"/>
<path d="M17945 11070 c-3 -5 1 -10 9 -10 9 0 16 5 16 10 0 6 -4 10 -9 10 -6
0 -13 -4 -16 -10z"/>
<path d="M19930 11076 c0 -2 7 -7 16 -10 8 -3 12 -2 9 4 -6 10 -25 14 -25 6z"/>
<path d="M19593 11058 l-43 -9 16 -37 c34 -82 89 -116 180 -110 35 2 66 7 70
11 11 11 -25 82 -56 112 -15 15 -45 31 -66 36 -45 10 -45 10 -101 -3z"/>
<path d="M18080 11051 c0 -5 9 -11 21 -14 16 -4 18 -3 8 9 -13 16 -29 19 -29
5z"/>
<path d="M14425 11032 c-30 -10 -51 -24 -53 -34 -5 -25 71 -95 116 -107 22 -6
55 -8 73 -5 39 8 89 31 89 42 0 4 -14 24 -31 45 -55 67 -117 86 -194 59z"/>
<path d="M17961 11018 c0 -10 -5 -18 -11 -18 -16 0 -11 -32 8 -46 9 -7 28 -13
42 -13 22 0 23 1 8 10 -10 5 -18 17 -18 24 0 8 -4 15 -9 15 -5 0 -12 10 -14
23 -3 14 -5 16 -6 5z"/>
<path d="M19126 10999 c-33 -47 -48 -114 -36 -159 12 -45 83 -125 101 -114 19
12 49 88 49 127 0 51 -20 95 -63 135 l-35 34 -16 -23z"/>
<path d="M15323 10939 c11 -94 66 -146 164 -157 l43 -5 0 40 c0 91 -81 172
-174 173 l-39 0 6 -51z"/>
<path d="M18063 10983 c-18 -6 -16 -23 1 -23 17 0 30 16 19 23 -5 2 -14 2 -20
0z"/>
<path d="M14740 10957 c0 -34 32 -115 52 -135 32 -29 90 -52 134 -52 l37 0 -5
44 c-7 62 -43 115 -92 137 -49 22 -126 26 -126 6z"/>
<path d="M15580 10949 c0 -107 68 -181 175 -191 l40 -3 -3 45 c-7 85 -56 143
-134 160 -68 14 -78 13 -78 -11z"/>
<path d="M19456 10951 c-10 -11 -24 -40 -32 -67 -19 -62 -6 -108 46 -165 39
-43 40 -44 56 -24 51 63 58 151 18 211 -25 37 -52 63 -65 64 -3 0 -14 -9 -23
-19z"/>
<path d="M19940 10950 c-14 -4 -19 -8 -12 -9 7 -1 11 -5 8 -9 -6 -10 33 -76
41 -69 3 4 -2 14 -12 23 -15 15 -15 18 -1 26 8 5 13 15 10 22 -3 8 2 16 13 19
16 4 16 5 -2 5 -11 0 -31 -4 -45 -8z"/>
<path d="M20030 10935 c0 -28 11 -31 40 -13 16 10 22 8 42 -17 13 -16 22 -33
20 -38 -1 -5 2 -6 8 -2 5 3 10 0 10 -8 0 -8 7 -20 14 -27 9 -7 6 8 -9 38 -36
74 -125 122 -125 67z"/>
<path d="M18160 10944 c-39 -14 -90 -38 -90 -42 0 -3 10 -20 22 -38 31 -45 86
-74 141 -74 43 0 110 21 121 38 7 12 -51 80 -83 96 -32 17 -90 27 -111 20z"/>
<path d="M18486 10920 c-26 -17 -46 -36 -44 -43 2 -6 26 -27 52 -44 57 -39
116 -44 175 -14 78 40 78 68 1 108 -63 33 -124 31 -184 -7z"/>
<path d="M13300 10894 c-75 -33 -110 -86 -110 -169 0 -60 2 -61 62 -45 78 22
133 102 126 186 -4 46 -22 53 -78 28z"/>
<path d="M17805 10893 c-16 -8 -40 -25 -52 -36 -22 -20 -22 -21 -5 -40 64 -71
173 -74 259 -7 27 21 19 34 -41 74 -46 30 -114 34 -161 9z"/>
<path d="M20328 10900 c-34 -10 -98 -49 -98 -59 0 -12 53 -58 87 -75 49 -25
101 -20 162 15 l53 31 -23 24 c-52 56 -126 82 -181 64z"/>
<path d="M13680 10858 c-84 -24 -130 -87 -130 -178 0 -45 2 -50 23 -50 37 0
110 43 134 78 24 37 39 108 28 141 -7 23 -6 23 -55 9z"/>
<path d="M19660 10830 c0 -5 7 -10 15 -10 8 0 15 5 15 10 0 6 -7 10 -15 10 -8
0 -15 -4 -15 -10z"/>
<path d="M19621 10814 c0 -11 3 -14 6 -6 3 7 2 16 -1 19 -3 4 -6 -2 -5 -13z"/>
<path d="M20085 10819 c-26 -6 -23 -7 19 -8 27 0 46 2 42 6 -9 10 -26 10 -61
2z"/>
<path d="M14615 10790 c-7 -12 2 -30 16 -30 12 0 12 27 0 35 -5 3 -12 1 -16
-5z"/>
<path d="M18708 10763 c-27 -14 -48 -32 -48 -38 0 -14 46 -58 77 -74 40 -20
122 -13 170 14 23 14 43 29 43 34 0 12 -52 57 -87 75 -47 23 -101 20 -155 -11z"/>
<path d="M19870 10756 c0 -102 79 -176 188 -176 l34 0 -7 43 c-16 99 -70 153
-163 164 l-52 6 0 -37z"/>
<path d="M14052 10740 c-69 -50 -91 -114 -67 -195 8 -30 19 -56 24 -59 13 -9
90 54 108 87 20 40 19 126 -1 166 -9 17 -18 31 -20 31 -2 0 -22 -13 -44 -30z"/>
<path d="M18540 10750 c0 -5 5 -10 11 -10 5 0 7 5 4 10 -3 6 -8 10 -11 10 -2
0 -4 -4 -4 -10z"/>
<path d="M18080 10731 c-19 -10 -43 -28 -53 -39 -18 -20 -18 -21 23 -51 74
-53 146 -53 218 0 23 17 42 35 42 40 0 5 -18 21 -41 36 -54 35 -138 42 -189
14z"/>
<path d="M18420 10740 c0 -5 5 -10 10 -10 6 0 10 5 10 10 0 6 -4 10 -10 10 -5
0 -10 -4 -10 -10z"/>
<path d="M19271 10734 c0 -11 3 -14 6 -6 3 7 2 16 -1 19 -3 4 -6 -2 -5 -13z"/>
<path d="M17735 10723 c-28 -8 -67 -34 -92 -62 -27 -30 -18 -45 42 -72 50 -23
96 -24 138 -3 39 20 87 63 87 79 0 30 -125 72 -175 58z"/>
<path d="M19571 10699 c-55 -89 -48 -159 20 -231 40 -42 41 -42 56 -23 43 56
56 142 29 193 -8 15 -30 42 -49 61 l-36 34 -20 -34z"/>
<path d="M20232 10718 c-7 -7 -12 -16 -12 -20 0 -9 45 -10 78 -2 l23 7 -27 13
c-32 17 -46 18 -62 2z"/>
<path d="M13013 10693 c9 -2 23 -2 30 0 6 3 -1 5 -18 5 -16 0 -22 -2 -12 -5z"/>
<path d="M20336 10687 c3 -10 9 -15 12 -12 3 3 0 11 -7 18 -10 9 -11 8 -5 -6z"/>
<path d="M14368 10652 c-47 -49 -58 -72 -58 -124 0 -48 32 -128 51 -128 22 0
88 79 98 118 7 23 7 50 2 68 -10 37 -38 91 -49 98 -5 3 -25 -12 -44 -32z"/>
<path d="M14618 10683 c12 -2 30 -2 40 0 9 3 -1 5 -23 4 -22 0 -30 -2 -17 -4z"/>
<path d="M19748 10683 c7 -3 16 -2 19 1 4 3 -2 6 -13 5 -11 0 -14 -3 -6 -6z"/>
<path d="M12960 10665 c0 -8 2 -15 4 -15 2 0 6 7 10 15 3 8 1 15 -4 15 -6 0
-10 -7 -10 -15z"/>
<path d="M13052 10650 c-15 -12 -19 -21 -11 -26 6 -3 15 -1 19 6 4 7 12 10 18
6 6 -3 9 1 8 9 -3 23 -10 24 -34 5z"/>
<path d="M13431 10634 c-56 -63 -66 -126 -32 -200 31 -68 50 -68 98 -1 46 63
50 110 16 177 -15 30 -33 56 -39 57 -6 2 -26 -13 -43 -33z"/>
<path d="M20170 10665 c0 -13 32 -54 48 -60 9 -3 13 -3 9 1 -4 4 -1 14 5 23
10 13 10 14 -2 4 -20 -18 -28 -16 -32 9 -3 19 -28 40 -28 23z"/>
<path d="M19270 10651 c0 -6 4 -13 10 -16 6 -3 7 1 4 9 -7 18 -14 21 -14 7z"/>
<path d="M20374 10623 c5 -31 4 -32 -29 -31 -19 1 -38 -1 -41 -4 -8 -9 71 -7
85 1 10 7 10 14 -4 37 l-16 29 5 -32z"/>
<path d="M18625 10623 c-53 -12 -85 -26 -85 -37 0 -7 18 -34 41 -59 53 -61
100 -75 177 -53 30 8 57 17 59 20 8 8 -24 60 -54 89 -16 15 -45 32 -64 37 -35
10 -41 11 -74 3z"/>
<path d="M12903 10605 c0 -8 6 -16 14 -19 11 -4 11 -1 3 14 -13 24 -17 25 -17
5z"/>
<path d="M18326 10604 c-11 -28 -6 -44 13 -44 23 0 32 19 19 43 -11 21 -24 22
-32 1z"/>
<path d="M13816 10589 c-36 -28 -66 -90 -66 -136 0 -39 29 -115 48 -127 17
-10 79 51 97 96 20 50 14 108 -15 156 -23 38 -29 39 -64 11z"/>
<path d="M18847 10603 c-9 -16 24 -102 51 -131 38 -40 128 -64 175 -46 12 4
13 12 5 42 -16 61 -48 103 -92 123 -41 18 -131 26 -139 12z"/>
<path d="M19200 10575 c-18 -13 -42 -37 -52 -52 -23 -35 -24 -118 -2 -173 16
-39 16 -39 44 -25 39 20 77 69 91 115 10 33 9 48 -7 96 -11 32 -24 59 -29 61
-6 2 -26 -8 -45 -22z"/>
<path d="M20240 10589 c0 -5 5 -7 10 -4 6 3 10 8 10 11 0 2 -4 4 -10 4 -5 0
-10 -5 -10 -11z"/>
<path d="M12880 10576 c0 -8 4 -17 9 -20 5 -4 7 3 4 14 -6 23 -13 26 -13 6z"/>
<path d="M15306 10574 c-10 -25 4 -37 20 -17 17 23 17 33 0 33 -8 0 -17 -7
-20 -16z"/>
<path d="M12970 10565 c-7 -8 -16 -12 -21 -9 -5 3 -6 -2 -3 -10 3 -9 10 -16
16 -16 5 0 6 5 2 12 -5 7 -1 9 12 6 14 -4 20 0 21 13 2 23 -10 24 -27 4z"/>
<path d="M15200 10559 c-7 -11 -9 -23 -6 -27 3 -3 6 1 6 9 0 12 2 12 9 0 7
-10 9 -7 8 12 -2 32 -3 33 -17 6z"/>
<path d="M19768 10575 c-10 -10 9 -92 28 -126 25 -43 94 -79 151 -79 l43 0 -6
43 c-14 87 -61 138 -144 156 -58 12 -65 13 -72 6z"/>
<path d="M18324 10499 c2 -18 17 -44 32 -58 20 -18 23 -20 10 -4 -11 13 -16
29 -12 39 4 11 -1 24 -15 37 l-21 19 6 -33z"/>
<path d="M20815 10513 c-16 -8 -38 -22 -48 -31 -17 -15 -16 -17 9 -44 62 -63
156 -72 235 -22 46 29 44 35 -25 86 -31 22 -49 28 -90 28 -28 -1 -64 -8 -81
-17z"/>
<path d="M19477 10513 c-15 -15 -6 -43 13 -43 11 0 20 3 20 8 -1 14 -27 42
-33 35z"/>
<path d="M18461 10494 c0 -11 3 -14 6 -6 3 7 2 16 -1 19 -3 4 -6 -2 -5 -13z"/>
<path d="M20378 10498 c-16 -5 -28 -14 -28 -19 0 -27 45 -92 80 -115 36 -24
47 -26 104 -22 81 7 88 11 74 46 -43 99 -137 144 -230 110z"/>
<path d="M14734 10453 c3 -25 14 -60 24 -77 29 -50 105 -83 180 -77 29 2 5 99
-37 145 -33 36 -79 56 -132 56 l-42 0 7 -47z"/>
<path d="M17845 10478 c-16 -6 -45 -21 -63 -33 l-32 -22 20 -26 c25 -32 97
-67 136 -67 36 0 103 31 127 57 18 20 17 21 -20 52 -36 30 -90 52 -123 50 -8
0 -28 -5 -45 -11z"/>
<path d="M19425 10480 c3 -5 11 -10 16 -10 6 0 7 5 4 10 -3 6 -11 10 -16 10
-6 0 -7 -4 -4 -10z"/>
<path d="M18510 10423 c0 -82 23 -121 90 -155 68 -36 86 -36 93 0 7 34 -9 108
-29 139 -16 26 -73 57 -121 68 l-33 7 0 -59z"/>
<path d="M20122 10450 c0 -19 2 -27 5 -17 2 9 2 25 0 35 -3 9 -5 1 -5 -18z"/>
<path d="M20141 10428 l1 -53 12 40 c13 41 11 65 -5 65 -5 0 -9 -24 -8 -52z"/>
<path d="M19400 10461 c0 -6 5 -13 10 -16 6 -3 10 1 10 9 0 9 -4 16 -10 16 -5
0 -10 -4 -10 -9z"/>
<path d="M19507 10443 c-4 -3 -7 -13 -7 -22 1 -13 3 -13 11 2 11 19 8 33 -4
20z"/>
<path d="M18451 10424 c0 -11 3 -14 6 -6 3 7 2 16 -1 19 -3 4 -6 -2 -5 -13z"/>
<path d="M19693 10394 c-9 -24 5 -102 24 -135 19 -31 102 -79 139 -79 28 0 36
21 28 73 -10 63 -38 102 -96 131 -59 30 -86 33 -95 10z"/>
<path d="M19370 10360 c0 -12 8 -17 29 -16 22 1 27 4 21 15 -11 21 -50 22 -50
1z"/>
<path d="M13085 10350 c-45 -18 -109 -115 -98 -147 6 -18 105 -17 147 1 18 8
45 29 58 47 28 37 50 94 41 103 -9 9 -125 6 -148 -4z"/>
<path d="M18914 10349 c-4 -7 -3 -9 4 -5 5 3 13 0 15 -6 4 -9 6 -10 6 -1 1 17
-16 25 -25 12z"/>
<path d="M13295 10341 c-6 -11 13 -26 22 -17 4 3 1 6 -6 6 -7 0 -9 5 -6 10 3
6 4 10 1 10 -3 0 -7 -4 -11 -9z"/>
<path d="M13970 10299 c-65 -67 -76 -142 -30 -216 23 -39 29 -40 64 -12 35 27
66 90 66 131 0 31 -42 138 -55 138 -3 0 -23 -19 -45 -41z"/>
<path d="M15411 10330 c-18 -4 -45 -17 -60 -27 -32 -24 -71 -97 -71 -135 0
-27 2 -28 45 -28 55 0 102 19 134 53 24 26 55 122 45 138 -6 11 -46 10 -93 -1z"/>
<path d="M17548 10323 c7 -3 16 -2 19 1 4 3 -2 6 -13 5 -11 0 -14 -3 -6 -6z"/>
<path d="M19446 10314 c-5 -14 -4 -15 9 -4 17 14 19 20 6 20 -5 0 -12 -7 -15
-16z"/>
<path d="M13337 10309 c7 -7 15 -10 18 -7 3 3 -2 9 -12 12 -14 6 -15 5 -6 -5z"/>
<path d="M14403 10283 c-32 -57 -37 -103 -18 -149 15 -37 71 -104 86 -104 13
0 59 103 59 132 0 56 -61 158 -95 158 -6 0 -21 -17 -32 -37z"/>
<path d="M17645 10310 c3 -5 11 -10 16 -10 6 0 7 5 4 10 -3 6 -11 10 -16 10
-6 0 -7 -4 -4 -10z"/>
<path d="M19394 10303 c2 -9 8 -19 14 -21 14 -4 15 0 6 22 -8 21 -23 20 -20
-1z"/>
<path d="M19580 10310 c-20 -12 -10 -19 14 -10 11 3 15 9 10 13 -6 3 -16 2
-24 -3z"/>
<path d="M20210 10316 c0 -2 7 -6 15 -10 8 -3 15 -1 15 4 0 6 -7 10 -15 10 -8
0 -15 -2 -15 -4z"/>
<path d="M13281 10284 c0 -11 3 -14 6 -6 3 7 2 16 -1 19 -3 4 -6 -2 -5 -13z"/>
<path d="M19507 10266 c-4 -10 -1 -13 8 -9 8 3 12 9 9 14 -7 12 -11 11 -17 -5z"/>
<path d="M14754 10245 c-8 -30 3 -46 17 -25 7 12 11 13 18 2 6 -11 10 -9 14 7
3 14 -1 25 -13 31 -26 14 -29 13 -36 -15z"/>
<path d="M18285 10239 c-46 -41 -65 -78 -65 -128 0 -49 27 -121 46 -121 25 0
92 74 104 117 11 36 10 49 -6 99 -11 32 -24 59 -31 61 -6 2 -28 -10 -48 -28z"/>
<path d="M13292 10240 c0 -14 2 -19 5 -12 2 6 2 18 0 25 -3 6 -5 1 -5 -13z"/>
<path d="M19380 10217 c-74 -39 -103 -98 -89 -185 8 -60 18 -65 64 -41 83 43
116 112 95 200 -7 27 -15 49 -19 49 -5 0 -27 -10 -51 -23z"/>
<path d="M15560 10205 c-7 -8 -19 -15 -27 -15 -8 0 -12 -4 -8 -9 3 -5 1 -12
-5 -16 -18 -11 0 -26 19 -15 10 5 20 7 23 5 3 -3 4 5 3 18 -1 12 2 28 8 35 14
17 2 15 -13 -3z m-7 -30 c-3 -9 -8 -14 -10 -11 -3 3 -2 9 2 15 9 16 15 13 8
-4z"/>
<path d="M18541 10205 c1 -19 18 -51 18 -35 0 8 -4 22 -9 30 -5 8 -9 11 -9 5z"/>
<path d="M18710 10113 c0 -49 5 -77 19 -99 22 -36 74 -71 118 -80 29 -6 31 -5
37 38 12 81 -23 149 -97 186 -72 36 -77 33 -77 -45z"/>
<path d="M13392 10145 c0 -16 2 -22 5 -12 2 9 2 23 0 30 -3 6 -5 -1 -5 -18z"/>
<path d="M13770 10160 c0 -5 5 -10 11 -10 5 0 7 5 4 10 -3 6 -8 10 -11 10 -2
0 -4 -4 -4 -10z"/>
<path d="M19590 10161 c0 -6 4 -13 10 -16 6 -3 7 1 4 9 -7 18 -14 21 -14 7z"/>
<path d="M13500 10118 c-23 -51 -25 -96 -6 -141 14 -35 78 -97 100 -97 18 0
46 71 46 116 0 20 -7 51 -16 70 -16 33 -79 94 -97 94 -4 0 -17 -19 -27 -42z"/>
<path d="M14877 10130 c7 -37 23 -49 23 -16 0 15 -4 25 -9 21 -5 -3 -11 0 -14
7 -2 7 -2 2 0 -12z"/>
<path d="M14790 10116 c0 -9 7 -16 16 -16 17 0 14 22 -4 28 -7 2 -12 -3 -12
-12z"/>
<path d="M19742 10100 c0 -19 2 -27 5 -17 2 9 2 25 0 35 -3 9 -5 1 -5 -18z"/>
<path d="M13722 10100 c0 -14 2 -19 5 -12 2 6 2 18 0 25 -3 6 -5 1 -5 -13z"/>
<path d="M15571 10108 c3 -28 -2 -38 -18 -39 -11 0 -13 -3 -5 -6 12 -5 61 35
62 50 0 4 -9 7 -20 7 -12 0 -20 -6 -19 -12z"/>
<path d="M19510 10116 c0 -2 6 -9 13 -15 10 -8 14 -7 14 4 0 8 -6 15 -14 15
-7 0 -13 -2 -13 -4z"/>
<path d="M18598 10085 c-50 -34 -82 -103 -74 -158 4 -23 15 -57 25 -75 l17
-33 42 30 c52 39 72 77 72 141 0 50 -22 120 -37 120 -5 0 -25 -11 -45 -25z"/>
<path d="M15172 10073 c-18 -8 -46 -31 -62 -50 -25 -28 -30 -42 -30 -87 0 -74
10 -116 27 -116 8 0 34 14 59 31 68 46 88 113 62 200 -13 44 -12 44 -56 22z"/>
<path d="M15485 10070 c-4 -11 -11 -18 -16 -15 -5 4 -9 1 -9 -4 0 -6 16 -11
35 -11 31 0 35 3 35 25 0 31 -35 35 -45 5z"/>
<path d="M16125 10074 c-28 -7 -53 -13 -57 -14 -5 0 -8 -8 -8 -18 0 -30 58
-89 105 -108 39 -14 53 -15 98 -5 82 18 85 23 54 70 -48 73 -110 97 -192 75z"/>
<path d="M18446 10068 c3 -5 10 -6 15 -3 13 9 11 12 -6 12 -8 0 -12 -4 -9 -9z"/>
<path d="M14866 10055 c4 -8 8 -15 10 -15 2 0 4 7 4 15 0 8 -4 15 -10 15 -5 0
-7 -7 -4 -15z"/>
<path d="M19892 10050 c0 -14 2 -19 5 -12 2 6 2 18 0 25 -3 6 -5 1 -5 -13z"/>
<path d="M13266 10038 c-26 -100 34 -205 130 -224 30 -6 31 -4 38 35 12 78
-15 140 -82 182 -55 35 -78 37 -86 7z"/>
<path d="M14311 10044 c0 -11 3 -14 6 -6 3 7 2 16 -1 19 -3 4 -6 -2 -5 -13z"/>
<path d="M14672 9977 c-6 -7 -17 -34 -23 -60 -12 -41 -11 -52 7 -94 17 -43 88
-113 114 -113 12 0 40 76 40 110 0 60 -42 125 -101 156 -22 11 -29 11 -37 1z"/>
<path d="M14245 9970 c-4 -6 1 -10 9 -10 21 0 20 -9 -1 -27 -16 -13 -16 -13 5
-3 12 6 22 17 22 24 0 17 -27 29 -35 16z"/>
<path d="M19535 9959 c-4 -6 -5 -12 -2 -15 2 -3 7 2 10 11 7 17 1 20 -8 4z"/>
<path d="M19513 9875 c0 -27 2 -38 4 -22 2 15 2 37 0 50 -2 12 -4 0 -4 -28z"/>
<path d="M19530 9882 c0 -18 5 -32 10 -32 6 0 8 11 4 28 -10 39 -14 40 -14 4z"/>
<path d="M19721 9875 c-18 -21 -37 -48 -42 -62 -21 -55 -5 -127 40 -183 19
-24 19 -24 41 -5 34 30 62 93 62 139 1 41 -15 80 -50 124 l-18 24 -33 -37z"/>
<path d="M13190 9893 c0 -5 -10 -15 -22 -21 -23 -11 -23 -11 -2 -11 20 -1 41
25 29 37 -3 3 -5 1 -5 -5z"/>
<path d="M19060 9882 c0 -6 -10 -20 -22 -32 -12 -11 -18 -20 -12 -20 5 0 4 -4
-2 -8 -15 -10 -30 -57 -15 -48 6 4 11 14 11 22 0 8 4 14 9 14 5 0 11 9 14 19
3 12 15 21 32 23 l27 3 -21 19 c-11 11 -21 14 -21 8z"/>
<path d="M19867 9884 c-10 -10 -8 -63 3 -106 18 -63 91 -115 164 -117 l29 -1
-7 57 c-8 70 -37 118 -85 142 -43 22 -94 34 -104 25z"/>
<path d="M19590 9860 c0 -5 5 -10 11 -10 5 0 7 5 4 10 -3 6 -8 10 -11 10 -2 0
-4 -4 -4 -10z"/>
<path d="M18311 9801 c-56 -56 -69 -106 -47 -176 9 -30 21 -57 27 -61 20 -12
79 41 105 93 23 47 25 55 13 90 -36 109 -40 112 -98 54z"/>
<path d="M19580 9820 c-8 -5 -10 -10 -5 -10 6 0 17 5 25 10 8 5 11 10 5 10 -5
0 -17 -5 -25 -10z"/>
<path d="M19520 9810 c0 -5 5 -10 11 -10 5 0 7 5 4 10 -3 6 -8 10 -11 10 -2 0
-4 -4 -4 -10z"/>
<path d="M13536 9794 c-11 -28 -6 -128 7 -154 14 -29 101 -90 127 -90 35 0 38
106 4 172 -14 26 -58 58 -106 77 -21 8 -28 7 -32 -5z"/>
<path d="M19132 9760 c0 -14 2 -19 5 -12 2 6 2 18 0 25 -3 6 -5 1 -5 -13z"/>
<path d="M13111 9754 c0 -11 3 -14 6 -6 3 7 2 16 -1 19 -3 4 -6 -2 -5 -13z"/>
<path d="M15336 9761 c-4 -7 -5 -15 -2 -18 9 -9 19 4 14 18 -4 11 -6 11 -12 0z"/>
<path d="M19007 9722 c1 -8 3 -21 3 -29 0 -10 6 -14 20 -10 17 4 18 2 8 -16
-8 -17 -5 -15 16 6 14 15 26 34 26 41 0 17 -52 28 -61 14 -4 -6 -9 -6 -11 -2
-3 5 -3 3 -1 -4z"/>
<path d="M13291 9693 c-41 -49 -55 -101 -42 -150 13 -44 47 -103 60 -103 5 0
26 21 47 46 50 60 57 127 21 194 -13 25 -31 46 -39 48 -9 2 -30 -14 -47 -35z"/>
<path d="M19551 9699 c-54 -39 -75 -87 -68 -156 3 -28 10 -61 17 -72 10 -20
12 -20 38 -4 71 44 102 89 102 150 0 53 -18 113 -34 113 -7 0 -32 -14 -55 -31z"/>
<path d="M15322 9690 c0 -14 2 -19 5 -12 2 6 2 18 0 25 -3 6 -5 1 -5 -13z"/>
<path d="M15415 9700 c3 -5 8 -10 11 -10 2 0 4 5 4 10 0 6 -5 10 -11 10 -5 0
-7 -4 -4 -10z"/>
<path d="M15442 9685 c0 -16 2 -22 5 -12 2 9 2 23 0 30 -3 6 -5 -1 -5 -18z"/>
<path d="M13110 9675 c0 -9 6 -12 15 -9 8 4 12 10 9 15 -8 14 -24 10 -24 -6z"/>
<path d="M15353 9624 c-7 -7 -13 -18 -13 -24 0 -15 20 -12 26 5 9 22 0 35 -13
19z"/>
<path d="M15410 9570 c0 -5 5 -10 11 -10 5 0 7 5 4 10 -3 6 -8 10 -11 10 -2 0
-4 -4 -4 -10z"/>
<path d="M19892 9440 c0 -14 2 -19 5 -12 2 6 2 18 0 25 -3 6 -5 1 -5 -13z"/>
<path d="M19912 9420 c0 -14 2 -19 5 -12 2 6 2 18 0 25 -3 6 -5 1 -5 -13z"/>
<path d="M19790 9379 c0 -5 5 -7 10 -4 6 3 10 8 10 11 0 2 -4 4 -10 4 -5 0
-10 -5 -10 -11z"/>
<path d="M13511 9334 c0 -11 3 -14 6 -6 3 7 2 16 -1 19 -3 4 -6 -2 -5 -13z"/>
<path d="M19795 9330 c3 -5 8 -10 11 -10 2 0 4 5 4 10 0 6 -5 10 -11 10 -5 0
-7 -4 -4 -10z"/>
<path d="M19845 9320 c3 -5 8 -10 11 -10 2 0 4 5 4 10 0 6 -5 10 -11 10 -5 0
-7 -4 -4 -10z"/>
<path d="M13550 9200 c0 -5 5 -10 11 -10 5 0 7 5 4 10 -3 6 -8 10 -11 10 -2 0
-4 -4 -4 -10z"/>
<path d="M13620 9184 c0 -8 5 -12 10 -9 6 4 8 11 5 16 -9 14 -15 11 -15 -7z"/>
<path d="M13590 9170 c6 -11 16 -20 22 -20 6 0 3 9 -7 20 -10 11 -20 20 -22
20 -2 0 1 -9 7 -20z"/>
<path d="M17143 4680 c-47 -19 -56 -78 -18 -115 32 -33 60 -31 96 4 65 65 8
146 -78 111z"/>
<path d="M18433 4680 c-47 -19 -56 -78 -18 -115 32 -33 60 -31 96 4 65 65 8
146 -78 111z"/>
<path d="M15132 4603 c-11 -10 -64 -94 -117 -187 -53 -93 -125 -214 -160 -268
-36 -54 -74 -117 -86 -139 -19 -39 -19 -42 -3 -60 44 -49 77 -34 139 66 26 41
51 72 56 69 5 -3 55 6 111 20 57 14 121 27 143 30 l40 6 39 -86 c41 -87 99
-154 134 -154 30 0 62 29 62 57 0 15 -16 43 -41 71 -22 26 -58 83 -79 127 -54
112 -140 358 -140 400 0 56 -56 83 -98 48z m49 -260 c17 -54 34 -103 36 -109
4 -12 -175 -50 -194 -43 -8 3 114 249 122 249 2 0 18 -44 36 -97z"/>
<path d="M18002 4592 c-10 -10 -28 -57 -41 -105 l-23 -87 -64 0 c-52 0 -65 -3
-74 -19 -14 -28 -13 -38 10 -61 14 -14 33 -20 61 -20 32 0 40 -3 35 -15 -17
-46 -46 -235 -40 -268 20 -120 162 -141 274 -40 34 31 50 53 50 69 0 39 -26
39 -84 -1 -40 -28 -61 -36 -86 -33 -50 5 -55 37 -25 176 13 63 26 116 27 118
2 1 48 10 103 19 54 8 105 21 112 27 8 6 13 23 11 37 l-3 26 -99 -4 c-90 -3
-98 -2 -93 14 4 9 15 45 24 80 16 61 16 65 -2 85 -22 25 -49 26 -73 2z"/>
<path d="M15764 4461 c-56 -14 -125 -55 -165 -98 -35 -38 -39 -48 -39 -93 0
-64 26 -94 135 -153 44 -24 81 -51 83 -60 6 -30 -55 -51 -150 -53 -54 -1 -93
-6 -103 -14 -19 -16 -20 -54 -1 -69 61 -50 301 7 347 83 43 71 16 121 -101
186 -93 52 -106 65 -96 103 10 40 70 72 139 73 69 2 93 19 83 59 -10 40 -59
53 -132 36z"/>
<path d="M16725 4446 c-70 -31 -156 -135 -202 -246 -28 -67 -31 -175 -7 -221
23 -46 92 -73 161 -65 111 13 246 110 227 161 -9 22 -38 14 -104 -27 -69 -43
-148 -50 -180 -18 -19 19 -21 29 -16 69 7 58 75 197 115 235 36 35 56 29 65
-18 17 -90 96 -85 96 6 0 53 -26 105 -61 123 -34 18 -55 18 -94 1z"/>
<path d="M17525 4438 c-82 -30 -181 -135 -235 -251 -64 -136 -30 -257 72 -257
42 0 122 46 174 99 l52 52 11 -63 c11 -66 35 -98 73 -98 27 0 56 17 68 40 8
15 5 24 -16 44 -38 35 -47 102 -28 223 20 133 19 150 -8 159 -13 4 -35 20 -49
35 -29 31 -61 36 -114 17z m63 -100 c7 -7 12 -26 12 -42 0 -90 -143 -266 -215
-266 -11 0 -15 11 -15 43 0 59 48 152 114 222 51 55 80 67 104 43z"/>
<path d="M18805 4438 c-82 -30 -181 -135 -235 -251 -64 -136 -30 -257 72 -257
42 0 122 46 174 99 l52 52 11 -63 c11 -66 35 -98 73 -98 27 0 56 17 68 40 8
15 5 24 -16 44 -38 35 -47 102 -28 223 20 133 19 150 -8 159 -13 4 -35 20 -49
35 -29 31 -61 36 -114 17z m63 -100 c7 -7 12 -26 12 -42 0 -90 -143 -266 -215
-266 -11 0 -15 11 -15 43 0 59 48 152 114 222 51 55 80 67 104 43z"/>
<path d="M16190 4431 c-83 -25 -136 -79 -188 -188 -43 -92 -50 -184 -16 -248
28 -54 92 -88 152 -81 149 19 282 172 282 321 0 64 -23 128 -56 157 -46 40
-117 56 -174 39z m91 -110 c21 -17 24 -28 24 -93 0 -67 -3 -79 -30 -118 -37
-54 -99 -100 -135 -100 -70 0 -85 105 -30 216 51 104 116 140 171 95z"/>
<path d="M17066 4405 c-8 -9 -18 -30 -21 -48 -54 -325 -58 -394 -25 -427 23
-23 49 -25 75 -6 16 12 19 29 20 142 2 99 7 146 24 201 29 99 28 131 -5 143
-35 14 -50 13 -68 -5z"/>
<path d="M18356 4405 c-8 -9 -18 -30 -21 -48 -54 -325 -58 -394 -25 -427 23
-23 49 -25 75 -6 16 12 19 29 20 142 2 99 7 146 24 201 29 99 28 131 -5 143
-35 14 -50 13 -68 -5z"/>
<path d="M14984 3315 c-29 -20 -47 -91 -94 -370 -46 -272 -48 -313 -20 -371
39 -79 87 -98 184 -70 76 22 183 121 226 210 102 208 21 364 -145 279 -16 -9
-59 -43 -94 -77 l-64 -61 7 40 c4 22 23 103 42 180 46 188 44 255 -6 255 -8 0
-25 -7 -36 -15z m231 -451 c-1 -144 -190 -332 -258 -256 -13 14 -15 25 -7 51
31 111 179 266 245 258 17 -2 20 -9 20 -53z"/>
<path d="M16686 3267 c-55 -55 -138 -602 -112 -740 12 -65 57 -86 97 -46 20
20 20 28 14 132 -9 141 6 270 51 446 36 141 42 199 22 219 -19 19 -47 14 -72
-11z"/>
<path d="M18603 3250 c-47 -19 -56 -78 -18 -115 32 -33 60 -31 96 4 65 65 8
146 -78 111z"/>
<path d="M21073 3250 c-47 -19 -56 -78 -18 -115 32 -33 60 -31 96 4 65 65 8
146 -78 111z"/>
<path d="M21893 3250 c-47 -19 -56 -78 -18 -115 32 -33 60 -31 96 4 65 65 8
146 -78 111z"/>
<path d="M12308 3206 c-237 -64 -463 -432 -380 -619 37 -84 145 -137 253 -122
98 14 266 118 257 161 -7 39 -33 39 -97 1 -124 -74 -218 -87 -271 -39 -57 50
-57 139 -1 257 70 150 216 285 306 285 29 0 36 -18 24 -66 -14 -63 -11 -83 15
-95 18 -9 30 -7 55 6 80 41 64 194 -24 231 -41 17 -74 17 -137 0z"/>
<path d="M17536 3180 c-201 -32 -268 -77 -209 -142 15 -17 14 -34 -10 -246
-32 -268 -33 -284 -9 -305 23 -21 42 -21 67 -3 15 11 21 35 30 122 l10 107 95
23 c128 32 244 90 303 152 98 106 82 230 -35 277 -52 20 -162 27 -242 15z
m193 -95 c82 -42 37 -140 -92 -203 -69 -34 -192 -70 -202 -60 -9 8 15 230 25
241 29 32 220 48 269 22z"/>
<path d="M19442 3162 c-10 -10 -28 -57 -41 -105 l-23 -87 -64 0 c-52 0 -65 -3
-74 -19 -14 -28 -13 -38 10 -61 14 -14 33 -20 61 -20 32 0 40 -3 35 -15 -17
-46 -46 -235 -40 -268 20 -120 162 -141 274 -40 34 31 50 53 50 69 0 39 -26
39 -84 -1 -40 -28 -61 -36 -86 -33 -50 5 -55 37 -25 176 13 63 26 116 27 118
2 1 48 10 103 19 54 8 105 21 112 27 8 6 13 23 11 37 l-3 26 -99 -4 c-90 -3
-98 -2 -93 14 4 9 15 45 24 80 16 61 16 65 -2 85 -22 25 -49 26 -73 2z"/>
<path d="M13935 3016 c-70 -31 -156 -135 -202 -246 -28 -67 -31 -175 -7 -221
23 -46 92 -73 161 -65 111 13 246 110 227 161 -9 22 -38 14 -104 -27 -69 -43
-148 -50 -180 -18 -19 19 -21 29 -16 69 7 58 75 197 115 235 36 35 56 29 65
-18 17 -90 96 -85 96 6 0 53 -26 105 -61 123 -34 18 -55 18 -94 1z"/>
<path d="M15631 3017 c-55 -17 -146 -110 -183 -185 -37 -75 -49 -182 -28 -246
36 -111 189 -137 316 -53 80 52 131 147 89 163 -9 4 -36 -13 -68 -40 -89 -76
-175 -98 -217 -56 -34 34 -26 58 22 71 94 25 192 98 229 171 61 120 -28 217
-160 175z m79 -97 c14 -27 -7 -68 -61 -114 -42 -35 -105 -64 -116 -52 -13 12
42 108 84 147 47 43 77 49 93 19z"/>
<path d="M18961 3017 c-55 -17 -146 -110 -183 -185 -37 -75 -49 -182 -28 -246
36 -111 189 -137 316 -53 80 52 131 147 89 163 -9 4 -36 -13 -68 -40 -89 -76
-175 -98 -217 -56 -34 34 -26 58 22 71 94 25 192 98 229 171 61 120 -28 217
-160 175z m79 -97 c14 -27 -7 -68 -61 -114 -42 -35 -105 -64 -116 -52 -13 12
42 108 84 147 47 43 77 49 93 19z"/>
<path d="M19951 3017 c-55 -17 -146 -110 -183 -185 -37 -75 -49 -182 -28 -246
36 -111 189 -137 316 -53 80 52 131 147 89 163 -9 4 -36 -13 -68 -40 -89 -76
-175 -98 -217 -56 -34 34 -26 58 22 71 94 25 192 98 229 171 61 120 -28 217
-160 175z m79 -97 c14 -27 -7 -68 -61 -114 -42 -35 -105 -64 -116 -52 -13 12
42 108 84 147 47 43 77 49 93 19z"/>
<path d="M21431 3017 c-55 -17 -146 -110 -183 -185 -37 -75 -49 -182 -28 -246
36 -111 189 -137 316 -53 80 52 131 147 89 163 -9 4 -36 -13 -68 -40 -89 -76
-175 -98 -217 -56 -34 34 -26 58 22 71 94 25 192 98 229 171 61 120 -28 217
-160 175z m79 -97 c14 -27 -7 -68 -61 -114 -42 -35 -105 -64 -116 -52 -13 12
42 108 84 147 47 43 77 49 93 19z"/>
<path d="M12672 2984 c-13 -9 -22 -26 -22 -42 0 -15 -11 -77 -25 -137 -36
-159 -32 -220 17 -272 54 -57 165 -25 240 71 22 28 44 53 49 54 5 2 9 -16 9
-40 0 -46 25 -105 51 -121 20 -13 75 7 84 30 3 9 -3 24 -15 35 -11 10 -23 31
-27 46 -14 47 -7 194 11 255 19 65 15 93 -15 102 -46 15 -66 -10 -104 -133
-32 -103 -142 -232 -196 -232 -41 0 -36 81 12 238 34 112 35 116 9 142 -24 24
-48 25 -78 4z"/>
<path d="M13276 2977 c-20 -20 -24 -40 -34 -152 -20 -216 -13 -315 23 -345 19
-16 71 -4 80 18 4 9 13 46 21 80 7 35 24 88 38 118 29 64 107 168 143 191 24
16 27 15 68 -7 37 -20 46 -22 59 -11 9 8 16 28 16 45 0 66 -83 104 -154 71
-47 -23 -126 -111 -166 -187 -18 -33 -34 -57 -36 -55 -3 2 3 38 12 78 27 123
29 151 8 166 -26 19 -52 16 -78 -10z"/>
<path d="M14302 2984 c-13 -9 -22 -26 -22 -42 0 -15 -11 -77 -25 -137 -36
-159 -32 -220 17 -272 54 -57 165 -25 240 71 22 28 44 53 49 54 5 2 9 -16 9
-40 0 -46 25 -105 51 -121 20 -13 75 7 84 30 3 9 -3 24 -15 35 -11 10 -23 31
-27 46 -14 47 -7 194 11 255 19 65 15 93 -15 102 -46 15 -66 -10 -104 -133
-32 -103 -142 -232 -196 -232 -41 0 -36 81 12 238 34 112 35 116 9 142 -24 24
-48 25 -78 4z"/>
<path d="M16012 2984 c-13 -9 -22 -26 -22 -42 0 -15 -11 -77 -25 -137 -36
-159 -32 -220 17 -272 54 -57 165 -25 240 71 22 28 44 53 49 54 5 2 9 -16 9
-40 0 -46 25 -105 51 -121 20 -13 75 7 84 30 3 9 -3 24 -15 35 -11 10 -23 31
-27 46 -14 47 -7 194 11 255 19 65 15 93 -15 102 -46 15 -66 -10 -104 -133
-32 -103 -142 -232 -196 -232 -41 0 -36 81 12 238 34 112 35 116 9 142 -24 24
-48 25 -78 4z"/>
<path d="M17986 2977 c-20 -20 -24 -40 -34 -152 -20 -216 -13 -315 23 -345 19
-16 71 -4 80 18 4 9 13 46 21 80 7 35 24 88 38 118 29 64 107 168 143 191 24
16 27 15 68 -7 37 -20 46 -22 59 -11 9 8 16 28 16 45 0 66 -83 104 -154 71
-47 -23 -126 -111 -166 -187 -18 -33 -34 -57 -36 -55 -3 2 3 38 12 78 27 123
29 151 8 166 -26 19 -52 16 -78 -10z"/>
<path d="M18526 2975 c-8 -9 -18 -30 -21 -48 -54 -325 -58 -394 -25 -427 23
-23 49 -25 75 -6 16 12 19 29 20 142 2 99 7 146 24 201 29 99 28 131 -5 143
-35 14 -50 13 -68 -5z"/>
<path d="M20996 2975 c-8 -9 -18 -30 -21 -48 -54 -325 -58 -394 -25 -427 23
-23 49 -25 75 -6 16 12 19 29 20 142 2 99 7 146 24 201 29 99 28 131 -5 143
-35 14 -50 13 -68 -5z"/>
<path d="M21816 2975 c-8 -9 -18 -30 -21 -48 -54 -325 -58 -394 -25 -427 23
-23 49 -25 75 -6 16 12 19 29 20 142 2 99 7 146 24 201 29 99 28 131 -5 143
-35 14 -50 13 -68 -5z"/>
<path d="M20322 2973 c-26 -10 -42 -62 -42 -138 0 -42 -7 -123 -16 -181 -19
-118 -13 -149 31 -160 33 -8 58 14 73 64 14 44 121 214 165 260 57 59 74 40
94 -105 18 -128 40 -179 83 -188 58 -13 136 31 128 72 -3 14 -12 17 -41 15
-46 -4 -49 3 -70 145 -18 126 -40 173 -91 192 -75 28 -161 -29 -226 -150 -17
-33 -32 -59 -34 -59 -1 0 4 33 11 73 22 124 -3 185 -65 160z"/>
<path d="M12980 1900 c0 -5 5 -10 10 -10 6 0 10 5 10 10 0 6 -4 10 -10 10 -5
0 -10 -4 -10 -10z"/>
</g>
</svg>
